<?xml version="1.0" encoding="utf-8"?>
<!-- Generator: Adobe Illustrator 16.0.0, SVG Export Plug-In . SVG Version: 6.00 Build 0)  -->
<!DOCTYPE svg PUBLIC "-//W3C//DTD SVG 1.1//EN" "http://www.w3.org/Graphics/SVG/1.1/DTD/svg11.dtd">
<svg version="1.1" id="Capa_1" xmlns="http://www.w3.org/2000/svg" xmlns:xlink="http://www.w3.org/1999/xlink" x="0px" y="0px"
	 width="595px" height="727.5px" viewBox="0 0 595 727.5" enable-background="new 0 0 595 727.5" xml:space="preserve">
<g>
	<path fill="#030101" d="M4.729,425.426v28.424c0.837,1.217,1.611,12.835,2.035,15.543c3.749,23.986,10.946,44.498,21.69,66.025
		c10.994,22.024,26.936,44.412,42.104,63.179c1.3,1.608,2.693,3.029,4.192,4.571l4.227,4.55c1.542,1.537,2.835,2.859,4.388,4.384
		l14.044,12.27c26.383,21.5,70.929,40.75,107.321,50.919c11.634,3.25,15.954,4.555,28.142,6.961
		c10.53,2.079,17.484,4.252,26.739,8.332c7.552,3.329,23.312,9.59,28.59,15.273c1.358,1.462,2.708,3.192,4.097,4.674
		c1.831,1.954,5.136,8.186,6.819,11.043h0.265c3.224-7.333,8.39-15.484,15.379-19.434c12.478-7.052,35.816-17.029,49.964-20.244
		c9.306-2.116,18.55-4.712,27.77-7.322c36.419-10.309,70.174-23.975,97.634-42.393c4.655-3.121,13.105-9.025,17.479-12.733
		c6.942-5.89,11.897-10.56,18.153-16.936c2.11-2.151,8.129-9.515,10.065-12.034l11.091-15.225c1.156-1.708,2.379-3.434,3.581-5.199
		c17.677-25.981,31.036-52.425,38.401-84.051c2.926-12.554,2.998-14.597,4.171-26.332c0.065-0.656,0.111-1.485,0.199-2.119
		c0.159-1.144,0.057-0.997,0.576-1.755v-29.402c-0.904-1.88-1.505-13.533-1.916-16.685c-3.017-23.102-10.865-51.994-16.979-74.635
		c-2.679-9.914-5.011-19.435-7.394-29.345c-10.149-42.199-10.342-88.088,1.753-129.406c5.55-18.951,13.711-35.363,19.462-53.971
		c1.15-3.721,0.297-3.368-1.735-5.974c-1.347-1.726-2.599-3.438-3.901-5.2c-3.596-4.853-5.352-6.025-8.415-9.774l-17.309-19.411
		c-1.193-1.184-1.389-1.371-2.31-2.559c-2.301-2.971-16.205-18.248-19.596-21.664l-15.18-16.979
		c-3.026-3.708-9.459-10.288-13.023-14.271c-0.47-0.525-0.559-0.735-1.022-1.253L487.81,4.968h-0.743
		c-0.235,0.23-0.221,0.22-0.572,0.491l-1.814,1.144c-0.796,0.462-1.679,0.975-2.443,1.454
		c-10.603,6.632-23.488,13.407-34.757,18.851c-11.429,5.521-31.553,13.623-43.747,17.656
		c-69.476,22.977-141.167,23.952-210.346-0.18c-15.137-5.281-29.655-11.181-43.689-17.698
		c-13.344-6.198-22.803-12.099-35.208-18.406c-1.212-0.617-3.781-1.879-4.655-2.67c-1.162,0.523-1.982,1.543-2.648,2.393
		l-15.2,16.632c-3.811,3.937-5.448,6.09-8.82,9.699c-0.954,1.022-1.313,1.472-2.135,2.413c-0.869,0.992-1.383,1.319-2.184,2.354
		c-0.703,0.911-1.208,1.424-2.207,2.355l-6.535,7.432c-0.851,0.962-1.2,1.534-2.142,2.403c-0.999,0.92-1.443,1.449-2.17,2.392
		L41.743,79.977c-0.879,1.035-1.146,1.441-2.13,2.419l-6.685,7.285c-4.047,3.994-3.813,4.473-6.369,7.282l-13.209,14.396
		c-0.964,0.933-1.208,1.512-2.118,2.442c-5.369,5.497-4.374,4.182-2.812,7.992c7.155,17.474,14.616,34.372,19.912,53.505
		c13.05,47.148,12.227,82.13,2.258,129.389c-4.095,19.417-9.944,39.322-14.771,58.651c-3.207,12.844-9.295,39.904-10.129,53.848
		C5.54,419.718,5.925,423.592,4.729,425.426z"/>
	<path fill="#FFFFFF" d="M298.151,68.815c-37.677-0.084-70.896-6.528-104.108-17.271c-21.483-6.95-43.731-16.532-63.281-27.041
		c-6.606-3.551-12.973-7.367-19.778-10.594c-1.164,0.783-4.924,4.937-6.148,6.343c-3.397,3.899-9.501,9.855-12.123,13.228
		l-4.459,4.954C83.701,43.6,79.589,48.716,74.751,53.52l-8.938,9.923c-1.028,1.23-2.076,2.088-3.126,3.363
		c-0.981,1.191-1.992,1.985-2.981,3.186c-0.481,0.585-0.824,1.056-1.34,1.598c-3.548,3.728-7.268,7.586-10.514,11.564
		c-0.586,0.718-0.785,1.137-1.479,1.777c-2.76,2.551-5.379,6.214-7.674,8.24c-4.095,3.619-7.996,9.482-12.026,13.322
		c-2.231,2.127-3.94,4.681-5.991,6.681c-1.509,1.472-5.208,5.307-5.869,6.786c8.855,22.468,13.224,31.183,20.417,55.595
		c6.101,20.703,9.4,45.699,9.397,68.495c-0.005,33.589-7.614,63.021-15.282,93.462c-6.843,27.172-15.942,56.279-17.282,84.583
		c-0.099,2.086-0.768,4.586-0.768,6.143v22.737c0,1.689,0.662,5.454,0.843,7.538c0.638,7.378,1.822,14.79,3.36,21.961
		c9.081,42.351,32.667,79.469,58.619,111.96l5.852,6.823c2.118,2.478,8.098,8.554,10.757,10.675l9.083,7.811
		c12.985,11.468,36.579,23.927,53.266,31.858c15.952,7.58,33.006,12.938,49.92,18.304c8.727,2.77,17.816,5.223,27.011,7.073
		c11.388,2.293,15.942,3.021,26.811,7.349c7.821,3.114,28.096,11.39,34.053,16.958c2.183,2.043,7.156,8.043,8.276,8.964
		c1.331-2.655,6.204-7.601,8.595-9.58c4.802-3.965,30.949-15.156,37.797-17.77c6.482-2.473,11.774-4.003,18.984-5.727
		c49.384-11.794,98.756-29.37,137.306-59.568c7.169-5.617,13.084-11.221,19.04-17.678l5.761-6.576
		c7.305-9.242,14.232-18.641,20.843-28.532c16.059-24.034,30.665-54.824,36.75-86.066c1.424-7.32,1.599-14.576,2.838-21.851
		c0.742-4.362,0.213-18.974,0.227-24.398c0.015-6.139-1.329-16.228-2.227-22.411c-8.332-57.405-31.756-105.377-31.702-166.964
		c0.021-26.049,4.675-52.931,12.53-75.693c3.751-10.87,8.088-21.123,12.061-31.801c0.988-2.654,1.999-5.433,2.888-8.161
		c1.668-5.117,2.037-3.779-0.881-7.542l-7.408-9.167c-0.481-0.567-0.778-0.751-1.287-1.297c-0.539-0.575-0.784-1.022-1.305-1.636
		c-0.482-0.566-0.774-0.743-1.29-1.294l-18.057-20.296c-0.552-0.607-0.934-0.85-1.443-1.462c-0.813-0.976-1.727-2-2.507-3.027
		c-1.682-2.218-13.91-14.984-15.801-17.334c-2.781-3.45-7.246-7.946-10.329-11.448l-7.782-8.785
		c-3.323-3.959-7.214-7.561-10.581-11.511c-1.454-1.706-14.49-16.394-15.871-17.271c-3.28,1.479-6.289,3.851-9.339,5.623
		c-7.468,4.342-22.885,12.277-30.33,15.486c-16.563,7.143-26.174,11.201-43.561,17.2C371.478,62.61,331.938,68.891,298.151,68.815z"
		/>
	<path d="M27.625,121.782c0.476,2.698,4.161,10.277,5.381,13.164c14.59,34.5,22.65,71.051,22.664,109.252
		c0.02,51.902-16.085,91.758-26.458,138.973c-1.653,7.522-3.168,15.381-4.353,23.117c-2.879,18.808-2.521,23.35-2.521,41.075
		c0,4.367,0.825,10.38,1.277,14.846c1.223,12.062,5.443,28.227,9.424,39.222c7.868,21.733,20.914,45.534,34.132,63.503
		c6.436,8.747,14.114,19.595,21.495,27.165c1.422,1.457,2.464,2.94,3.951,4.262c1.527,1.362,2.676,2.598,4.124,4.09
		c2.479,2.558,15.229,12.804,17.897,14.649c6.39,4.42,12.729,8.613,19.891,12.653c21.748,12.267,44.127,21.464,68.914,28.736
		c8.438,2.478,16.865,5.014,25.577,6.986c4.416,1,9.036,1.612,13.521,2.581c12.884,2.784,48.949,17.854,56.223,25.215
		c1.087-0.482,3.488-2.296,4.825-3.108c1.763-1.071,3.429-1.979,5.295-2.923c11.321-5.729,33.88-16.169,45.68-19.088
		c13.998-3.463,24.493-6.205,38.565-10.083c33.958-9.365,74.433-27.667,99.009-46.985c3.801-2.986,9.488-7.755,12.999-11.017
		c3.64-3.379,8.877-8.88,12.015-12.633c8.382-10.026,20.465-27.077,26.851-37.919c13.793-23.419,22.307-41.582,28.476-68.846
		c4.379-19.35,3.758-28.458,3.758-47.104c0-7.571-1.487-17.712-2.66-25.163c-1.235-7.848-2.792-15.647-4.52-23.237
		c-11.122-48.913-26.745-87.315-26.867-141.179c-0.05-24.116,3.93-49.42,10.198-71.247c5.38-18.724,9.182-28.081,16.205-45.09
		c1.434-3.47,1.574-2.435-1.623-6.464c-1.482-1.87-3.148-3.746-4.96-5.463c-1.749-1.657-2.87-3.435-4.736-5.376
		c-2.011-2.092-8.174-9.311-9.6-10.621l-36.367-40.417c-0.992-1.011-1.494-1.476-2.415-2.642l-4.988-5.43
		c-0.2-0.236-18.018-20.376-19.61-21.521l-19.235,10.192c-18.369,9.643-43.363,19.641-63.243,25.864
		c-69.517,21.76-136.86,21.306-206.262-0.059c-14.929-4.596-28.909-10.428-42.813-16.265c-6.802-2.856-13.554-6.129-19.99-9.398
		c-6.623-3.364-12.91-7.177-19.415-10.332c-1.339,0.73-4.374,4.451-5.403,5.705c-1.976,2.409-4.205,4.365-5.498,5.867
		c-3.472,4.037-6.951,7.708-10.59,11.843L81.278,63.012c-1.033,1.101-1.674,1.614-2.614,2.753l-8.134,8.93
		c-1.19,1.104-1.639,1.629-2.605,2.765c-2.629,3.09-7.793,8.336-10.662,11.764c-4.076,4.87-8.931,9.804-13.306,14.825
		l-10.846,11.898C32.326,116.899,28.443,121.349,27.625,121.782z"/>
	<path d="M155.042,629.242l0.194-365.731l94.784,0.099l0.113,395.76c16.632,2.493,34.761,10.932,48.852,19.979
		c13.735-9.265,29.971-15.424,46.037-19.254l0.204-396.583l94.729,0.085c0.35,3.117,0.068,7.977,0.068,11.286
		c0,38.675-0.328,352.656,0.139,354.477l0.193,0.422c3.288-0.826,19.466-9.47,23.079-11.593c3.772-2.217,7.118-4.155,10.705-6.561
		c6.18-4.143,11.969-8.066,17.567-12.739c4.003-3.345,10.126-8.898,13.472-12.592c0.74-0.817,1.417-1.281,2.153-2.081
		c3.859-4.203,8.277-9.946,11.76-14.614c17.966-24.076,37.53-55.636,45.495-93.318c13.096-61.955-13.192-117.044-24.768-176.518
		c-1.905-9.794-3.513-20.151-4.507-30.335c-0.518-5.32-0.956-10.72-1.14-16.065c-0.081-2.343-0.056-16.422-0.355-17.209
		L63.95,236.057c-0.426,13.392,0.18,18.503-1.285,33.073c-3.048,30.291-9.979,56.451-17.832,85.547
		c-10.438,38.677-19.642,78.089-10.831,120.065c8.444,40.223,31.137,75.382,52.442,102.144c1.296,1.628,2.472,3.237,3.782,4.71
		c0.906,1.017,1.228,1.532,1.942,2.301c1.569,1.694,9.459,9.932,10.769,11.039l4.55,3.948
		C118.516,609.146,141.123,622.904,155.042,629.242z"/>
	<path fill="#FFFFFF" d="M63.95,236.057l469.867,0.099l1.073-17.691c3.065-31.579,11.068-60.404,23.283-89.533
		c2.513-5.995,3.068-3.895-3.844-11.271c-0.975-1.042-1.287-1.286-2.151-2.379c-1.623-2.057-9.508-10.2-11.202-12.434
		l-37.886-42.123c-4.085-4.366-10.732-11.668-14.494-16.112c-1.409-1.665-4.174-4.36-5.66-6.404
		c-0.758,0.146-4.02,1.917-4.885,2.399c-1.633,0.91-3.126,1.699-4.739,2.522c-3.282,1.677-6.413,3.208-9.694,4.849
		c-75.281,37.614-160.152,50.74-243.199,31.222c-7.984-1.877-15.365-4.038-23.213-6.199c-17.95-4.945-45.968-16.414-62.77-24.807
		l-19.376-9.963c-1.709,1.702-2.987,3.28-4.827,5.105L87.376,68.676c-0.998,0.877-0.575,0.459-1.328,1.39l-7.396,8.077
		c-1.042,1.011-1.41,1.75-2.384,2.766c-1.047,1.094-1.399,1.472-2.295,2.546l-9.812,10.8c-1.238,1.203-1.436,1.595-2.416,2.729
		l-7.263,7.894c-1.039,1.02-1.38,1.752-2.396,2.749L37.44,123.947c3.409,8.824,6.293,14.899,9.819,24.789
		c8.021,22.498,13.631,46.667,15.804,70.631C63.492,224.111,64.223,231.105,63.95,236.057z"/>
	<path fill="#189647" d="M155.042,629.242c22.493,10.529,56.461,22.562,82.042,27.302c3.897,0.722,9.417,1.61,13.048,2.826
		l-0.113-395.76l-94.784-0.099L155.042,629.242z"/>
	<path fill="#189647" d="M345.021,660.095c4.719-1.576,18.39-4.445,25.055-6.19c19.981-5.236,40.435-11.459,59.424-19.349
		c2.117-0.88,9.658-3.831,10.855-4.774l-0.193-0.422c-0.467-1.82-0.139-315.802-0.139-354.477c0-3.31,0.281-8.169-0.068-11.286
		l-94.729-0.085L345.021,660.095z"/>
	<rect x="515.108" y="190.143" width="13.438" height="17.851"/>
	<polygon points="444.621,207.993 444.621,114.835 458.713,114.835 458.713,151.491 486.444,151.491 486.444,114.835 
		500.598,114.835 500.598,207.993 486.444,207.993 486.444,167.259 458.713,167.259 458.713,207.993 	"/>
	<path d="M418.818,173.745l13.696,5.77c-2.146,10.433-5.684,18.046-10.655,22.861c-4.968,4.793-11.091,7.202-18.347,7.202
		c-9.124,0-16.518-3.839-22.184-11.496c-6.54-8.849-9.8-20.801-9.8-35.832c0-15.898,3.279-28.327,9.859-37.306
		c5.705-7.788,13.357-11.691,22.999-11.691c7.832,0,14.392,2.928,19.68,8.763c3.757,4.164,6.52,10.325,8.269,18.501l-13.974,4.447
		c-0.896-5.054-2.662-8.915-5.328-11.605c-2.662-2.688-5.803-4.034-9.403-4.034c-5.168,0-9.382,2.451-12.641,7.375
		c-3.259,4.901-4.891,13.013-4.891,24.335c0,11.734,1.591,20.084,4.771,25.03c3.18,4.967,7.314,7.44,12.403,7.44
		c3.737,0,6.957-1.583,9.66-4.729C415.659,185.609,417.626,180.599,418.818,173.745z"/>
	<rect x="346.74" y="190.143" width="13.438" height="17.851"/>
	<polygon points="276.372,207.993 276.372,114.835 290.127,114.835 318.771,177.042 318.771,114.835 331.932,114.835 
		331.932,207.993 317.718,207.993 289.531,147.239 289.531,207.993 	"/>
	<rect x="248.959" y="190.143" width="13.438" height="17.851"/>
	<path d="M241.544,207.993H226.18l-6.123-21.169h-27.949l-5.766,21.169h-15.027l27.253-93.158h14.969L241.544,207.993
		L241.544,207.993z M215.524,171.142L215.524,171.142l-9.622-34.574l-9.481,34.574H215.524z"/>
	<rect x="151.178" y="190.143" width="13.438" height="17.851"/>
	<path d="M125.476,173.745l13.696,5.77c-2.146,10.433-5.686,18.046-10.655,22.861c-4.97,4.793-11.093,7.202-18.349,7.202
		c-9.124,0-16.518-3.839-22.184-11.496c-6.54-8.849-9.799-20.801-9.799-35.832c0-15.898,3.28-28.327,9.859-37.306
		c5.705-7.788,13.358-11.691,22.999-11.691c7.832,0,14.392,2.928,19.679,8.763c3.758,4.164,6.521,10.325,8.27,18.501l-13.974,4.447
		c-0.895-5.054-2.664-8.915-5.328-11.605c-2.664-2.688-5.804-4.034-9.402-4.034c-5.168,0-9.383,2.451-12.643,7.375
		c-3.259,4.901-4.89,13.013-4.89,24.335c0,11.734,1.589,20.084,4.771,25.03c3.181,4.967,7.315,7.44,12.404,7.44
		c3.738,0,6.958-1.583,9.662-4.729C122.315,185.609,124.283,180.599,125.476,173.745z"/>
</g>
</svg>
