<?xml version="1.0" encoding="utf-8"?>
<!-- Generator: Adobe Illustrator 16.0.0, SVG Export Plug-In . SVG Version: 6.00 Build 0)  -->
<!DOCTYPE svg PUBLIC "-//W3C//DTD SVG 1.1//EN" "http://www.w3.org/Graphics/SVG/1.1/DTD/svg11.dtd">
<svg version="1.1" id="Capa_1" xmlns="http://www.w3.org/2000/svg" xmlns:xlink="http://www.w3.org/1999/xlink" x="0px" y="0px"
	 width="612px" height="750px" viewBox="0 0 612 750" enable-background="new 0 0 612 750" xml:space="preserve">
<g>
	<path fill-rule="evenodd" clip-rule="evenodd" fill="#00A1DF" d="M6.112,579.831c0.029,0.045,1.076,11.931,1.354,13.255
		c0.918,4.377,1.473,7.628,2.497,11.78c1.692,6.856,5.498,14.81,8.954,19.931c6.828,10.119,19.876,21.164,32.292,25.474
		c3.719,1.29,6.534,2.558,10.795,3.812c3.618,1.064,7.707,1.976,11.199,3.075c4.286,1.35,19.724,3.841,24.868,4.012
		c3.511,0.116,9.225,0.982,13.256,1.35c1.734,0.158,4.587,0.446,6.517,0.787c2.158,0.382,4.424,0.01,6.572,0.397
		c3.163,0.573,10.205,1.144,13.477,1.13c4.783-0.019,8.583,1.022,13.278,0.995c4.688-0.026,9.194,1.287,13.265,1.342
		c3.546,0.047,9.865,0.673,13.041,1.232c8.186,1.44,17.203,2.157,24.813,4.067c7.177,1.801,16.671,3.22,23.044,5.836
		c7.201,2.956,14.1,4.673,20.779,8.103c5.791,2.974,13.436,6.665,18.454,10.428c2.901,2.176,5.467,4.092,8.335,6.271
		c2.8,2.129,4.903,4.634,7.479,6.797c10.255,8.61,17.603,21.363,25.142,32.625h0.332c3.744-5.591,7.048-11.349,11.081-16.807
		c4.047-5.479,8.329-10.077,13.068-14.819c9.779-9.781,19.463-16.403,32.511-22.931c12.466-6.237,26.218-10.869,41.799-13.971
		c14.064-2.8,33.176-6.018,49.265-6.172c4.154-0.04,8.267-0.697,13.27-0.673c3.749,0.021,9.23-0.359,13.279-0.661
		c4.296-0.322,8.539-0.667,13.275-0.667c4.786,0,9.008-0.677,13.282-0.66c12.311,0.049,39.687-3.414,48.904-6.531
		c13.905-4.702,27.277-9.975,35.205-20.565c4.24-5.665,7.742-10.101,10.268-17.622c1.396-4.159,1.808-6.484,2.731-11.213
		c0.382-1.952,0.913-4.036,1.118-5.854c0.215-1.909-0.482-4.967,0.354-6.286V6.403H6.112V579.831z"/>
	<rect x="21.049" y="21.345" fill-rule="evenodd" clip-rule="evenodd" fill="#FDFEFF" width="569.278" height="105.92"/>
	<path fill-rule="evenodd" clip-rule="evenodd" fill="#FDFEFF" d="M262.702,677.449c0,0.943,10.262,7.169,11.746,8.174
		c4.109,2.783,7.688,5.688,11.404,8.848c3.499,2.975,18.377,17.559,19.339,21.164c0.507-0.136,15.395-17.208,18.789-19.724
		c3.623-2.687,6.808-5.939,10.549-8.705c1.52-1.123,11.491-7.082,11.491-8.096V142.538h-83.317V677.449z"/>
	<path fill-rule="evenodd" clip-rule="evenodd" fill="#FDFEFF" d="M429.668,654.872c2.948,0,6.887-0.668,9.927-1.028
		c3.022-0.357,7.141-0.213,10.188-0.766c3.87-0.699,16.926-1.222,21.042-1.198c13.819,0.076,28.69-1.989,42.16-1.989V142.538
		h-83.317V654.872z"/>
	<polygon fill-rule="evenodd" clip-rule="evenodd" fill="#FDFEFF" points="95.072,645.906 178.721,653.543 178.721,142.538 
		95.072,142.538 	"/>
	<path fill-rule="evenodd" clip-rule="evenodd" fill="#00A1DF" d="M56.566,117.303h19.252V81.776h5.976
		c13.368,0,14.924,7.875,21.163,15.023c2.053,2.352,14.346,20.504,15.682,20.504h22.24c-0.16-0.599-12.518-18.855-13.875-20.652
		c-2.278-3.017-5.112-6.916-7.607-9.656c-2.085-2.29-9.237-6.43-10.052-7.544c11.693-0.973,23.9-9.544,23.9-21.914V53.22
		c0-3.469-2.382-8.865-3.921-11.019c-2.702-3.781-4.117-4.52-7.961-6.978c-5.194-3.323-17.558-3.585-26.29-3.585H56.566V117.303z"/>
	<path fill-rule="evenodd" clip-rule="evenodd" fill="#00A1DF" d="M375.562,117.303h17.926l0.217-54.933l36.96,54.933h19.252V31.638
		h-17.924V87.42c-1.19-0.873-17-24.76-18.927-27.886c-2.587-4.198-6.479-10.013-9.488-14.084c-1.246-1.685-8.81-13.813-9.758-13.813
		h-18.258V117.303z"/>
	<path fill-rule="evenodd" clip-rule="evenodd" fill="#00A1DF" d="M466.182,74.139c0,13.664,5.771,25.196,12.696,32.125
		c6.868,6.873,18.845,12.368,32.447,12.368h5.644c7.969,0,14.718-2.421,20.647-4.249c3.349-1.033,5.973-2.319,8.844-3.771
		c1.368-0.692,7.279-4.821,7.687-4.93V71.15h-41.161V85.76h21.577v10.293c0,2.086-11.822,6.111-14.737,6.842
		c-6.086,1.525-13.742,0.64-18.567-1.421c-9.842-4.204-15.159-14.08-15.159-28v-0.333c0-7.476,2.498-15.929,6.219-19.678
		c3.856-3.888,10.184-8.213,17.681-8.213h5.311c7.758,0,17.703,6.615,18.257,13.281l1.351,0.128l17.902-3.116
		c-0.355-4.272-3.987-10.365-6.217-13.041c-2.889-3.471-6.692-6.525-11.242-8.344c-2.871-1.146-3.762-1.61-7.246-2.38
		c-3.342-0.739-5.229-0.641-8.688-1.271c-3.317-0.604-15.109-0.301-18.062,0.461c-6.579,1.7-8.879,2.317-14.38,5.206
		c-3.409,1.791-8.436,5.963-10.644,8.942C470.682,52.753,466.182,60.995,466.182,74.139z"/>
	<path fill-rule="evenodd" clip-rule="evenodd" fill="#00A1DF" d="M141.212,117.303l20.379-0.079l7.504-19.511h36.513
		c0.938,0,4.194,8.198,4.577,9.367c0.831,2.539,3.888,8.232,4.053,10.223h21.244c-3.142-5.94-6.795-14.914-9.426-21.45
		c-2.873-7.134-6.375-14.452-9.496-21.38c-3.199-7.103-6.318-14.267-9.4-21.477c-1.641-3.84-2.965-7.141-4.716-10.888
		c-0.704-1.505-4.125-10.471-5.134-10.471h-18.921c-1.422,0-4.497,8.402-5.178,10.094c-1.53,3.797-3.081,7.03-4.622,10.651
		c-3.186,7.49-6.034,14.459-9.125,21.751c-1.258,2.967-3.036,8.057-4.526,10.746c-1.192,2.15-3.73,8.254-4.574,10.699
		c-1.211,3.508-3.237,7.146-4.544,10.728C144.615,109.603,142.004,113.902,141.212,117.303z"/>
	<path fill-rule="evenodd" clip-rule="evenodd" fill="#00A1DF" d="M241.458,74.803c0,24.844,16.062,43.829,40.498,43.829h4.646
		c19.499,0,33.186-12.175,36.808-27.758l-18.883-5.446c-0.348,4.183-3.225,9.295-5.396,11.868c-1.934,2.292-7.63,6.03-11.527,6.068
		c-6.059,0.058-10.121,0.281-14.552-2.389c-3.973-2.396-6.44-4.746-8.589-9.006c-0.934-1.853-1.59-4.535-2.017-6.616
		c-0.649-3.166-0.32-5.035-0.81-8.155c-0.903-5.751,0.489-11.219,1.327-15.748c1.487-8.046,9.913-16.198,18.993-16.198h4.979
		c4.104,0,8.949,2.692,11.35,4.584c1.714,1.35,2.389,2.591,3.649,4.318c0.703,0.963,2.079,5.375,2.593,5.375
		c1.247,0,7.416-1.75,9.15-2.137c3.037-0.677,6.532-1.605,9.438-1.848c-2.173-9.329-8.969-17.224-16.825-21.023
		c-8.101-3.918-21.491-5.928-32.303-3.215C254.063,36.305,241.458,50.095,241.458,74.803z"/>
	<path fill-rule="evenodd" clip-rule="evenodd" fill="#00A1DF" d="M338.716,117.303h18.258c0.764,0,0.995-0.23,0.995-0.996V32.634
		c0-0.765-0.231-0.996-0.995-0.996h-18.258V117.303z"/>
	<path fill-rule="evenodd" clip-rule="evenodd" fill="#FDFEFF" d="M75.819,67.498h23.568c7.835,0,14.273-2.979,14.273-10.625
		c0-5.505-4.669-10.294-9.958-10.294H75.819V67.498z"/>
	<polygon fill-rule="evenodd" clip-rule="evenodd" fill="#FDFEFF" points="175.15,83.136 200.082,83.057 187.476,52.274 	"/>
</g>
</svg>
