<?xml version="1.0" encoding="utf-8"?>
<!-- Generator: Adobe Illustrator 16.0.0, SVG Export Plug-In . SVG Version: 6.00 Build 0)  -->
<!DOCTYPE svg PUBLIC "-//W3C//DTD SVG 1.1//EN" "http://www.w3.org/Graphics/SVG/1.1/DTD/svg11.dtd">
<svg version="1.1" id="Capa_1" xmlns="http://www.w3.org/2000/svg" xmlns:xlink="http://www.w3.org/1999/xlink" x="0px" y="0px"
	 width="612px" height="730.5px" viewBox="0 0 612 730.5" enable-background="new 0 0 612 730.5" xml:space="preserve">
<g>
	<g>
		<path fill-rule="evenodd" clip-rule="evenodd" d="M5.595,121.377v0.663c1.096,1.414,3.42,7.254,4.39,9.38
			c1.529,3.353,2.834,6.461,4.389,9.75c7.095,15.001,18.12,46.528,22.147,62.286c7.882,30.837,11.52,64.102,15.796,96.956
			c4.349,33.414,7.584,66.446,12.676,100.095c6.227,41.142,20.924,92.387,39.702,129.194c7.841,15.368,16.109,30.299,25.948,44.385
			c5.658,8.101,9.368,12.811,14.934,20.246c4.519,6.037,9.714,11.612,14.678,17.2l29.444,30.374
			c0.738,0.644,1.072,0.756,1.841,1.438l5.719,5.135c2.539,2.538,12.711,10.777,15.339,12.925
			c7.758,6.022,15.292,11.721,22.939,17.261c22.948,16.619,47.187,31.598,71.624,45.91l28.581-17.453
			c1.337-0.909,2.749-1.879,4.054-2.842l4.24-2.995c5.723-3.936,10.668-7.63,16.303-11.627l10.023-7.391
			c0.938-0.639,1.376-0.893,2.137-1.489c1.433-1.122,2.743-1.971,4.129-3.103l18.994-15.849c0.914-0.726,1.079-0.765,1.972-1.643
			l16.784-14.768c8.438-7.636,13.561-14.505,20.733-21.669l11.22-13.092c4.433-5.767,9.253-10.393,14.256-17.633
			c13.912-20.139,19.625-26.985,32.722-51.432c50.648-94.536,52.27-189.06,73.139-292.323c5.979-29.586,15.755-70.828,28.687-97.527
			c1.598-3.298,3.053-6.318,4.482-9.651c1.18-2.746,7.589-18.468,8.504-19.681v-0.833l-21.488-21.472
			c-2.358-2.358-5.092-4.802-7.228-7.24l-25.193-25.419c-7.672-8.419-24.132-24.507-32.373-32.702
			c-4.902-4.874-9.581-9.562-14.471-14.457c-4.704-4.708-9.912-9.548-14.168-14.628h-1.216c-0.991,0.675-8.522,3.159-10.302,3.738
			c-8.991,2.928-22.903,8.256-30.854,10.562C401.24,34.341,361.36,41.997,307.021,41.997c-30.852,0-70.456-3.815-99.925-10.684
			c-26.498-6.175-39.713-10.215-64.358-18.488c-1.352-0.454-19.441-6.343-20.612-7.166h-1.214l-14.2,14.336
			c-4.958,4.961-9.368,9.048-14.318,14.603c-1.24,1.391-2.323,2.396-3.641,3.593c-5.74,5.215-15.318,15.756-21.708,21.677
			l-7.231,7.233c-1.296,1.396-2.393,2.38-3.627,3.601c-1.248,1.234-2.33,2.456-3.558,3.675c-1.192,1.181-2.409,2.249-3.671,3.562
			L34.642,92.545C32.719,94.468,7.049,120.512,5.595,121.377z"/>
		<path fill-rule="evenodd" clip-rule="evenodd" fill="#FFFFFF" d="M18.625,123.975c0.767,2.718,2.917,6.734,4.113,9.473
			c28.713,65.781,30.207,90.705,40.227,165.154c9.059,67.306,10.716,119.661,34.004,184.91c8.509,23.843,14.243,35.39,25.335,56.516
			c8.427,16.05,27.046,43.113,39.092,56.558l11.286,12.709c3.36,3.172,5.234,5.752,8.556,8.862
			c9.217,8.634,12.027,12.682,20.829,19.928c1.685,1.387,4.905,4.786,7.229,6.577c1.263,0.972,2.271,1.983,3.537,3.032
			c18.104,15.029,31.888,24.84,51.684,37.726c2.727,1.774,5.697,3.653,8.342,5.462c5.273,3.607,11.102,7.225,16.69,10.594
			l17.565,10.067c12.131-6.842,21.539-12.946,33.009-20.729c11.243-7.627,35.842-25.435,46.612-35.559l21.703-19.066
			c2.334-1.844,4.729-4.725,6.846-6.954l6.646-7.156c1.214-1.129,2.081-2.394,3.24-3.669c0.721-0.792,0.927-0.83,1.743-1.539
			l14.134-16.765c2.008-2.611,4.082-4.632,6.12-7.357l5.937-7.868c7.46-10.669,14.98-20.895,21.981-32.91
			c49.803-85.463,56.332-160.552,72.075-256.561c5.135-31.315,11.026-61.027,18.431-91.046
			c5.226-21.183,12.413-41.481,21.442-60.721c1.446-3.083,7.563-16.796,8.286-19.337c-1.638-2.545-22.296-22.432-26.198-26.411
			l-46.017-46.344c-2.315-2.349-4.385-4.442-6.691-6.783l-26.19-26.707c-2.021,0.222-35.37,12.029-40.088,13.331
			c-49.924,13.777-85.892,21.35-140.157,21.421c-32.654,0.031-69.337-3.078-100.39-9.891c-15.246-3.346-29.238-7.211-43.964-11.269
			C159.635,30,125.887,18.34,123.762,18.025l-91.895,92.449c-2.263,2.286-4.28,4.317-6.547,6.601
			C23.375,119.036,20.128,121.918,18.625,123.975z"/>
	</g>
	<path fill-rule="evenodd" clip-rule="evenodd" fill="#E30613" d="M103.767,428.82L326.688,74.367
		c55.595-2.657,108.113-13.125,157.567-31.351l68.836,68.835L226.402,630.623C165.968,577.987,121.456,513.436,103.767,428.82z"/>
	<g>
		<circle fill-rule="evenodd" clip-rule="evenodd" fill="#FFFFFF" cx="307.301" cy="308.226" r="183.73"/>
		<g>
			<path fill-rule="evenodd" clip-rule="evenodd" d="M294.267,148.188l0.009,320.059c7.167,2.145,20.103,1.036,27.658,0.154
				l0.073-99.627c11.062,21.847,21.622,68.47,25.528,95.548c11.224-2.225,21.667-6.965,30.553-10.875
				c-2.249-24.985-12.711-60.943-21.643-84.797c-2.733-7.3-9.054-19.429-10.541-25.885c32.569-11.171,27.931-85.142,26.722-124.747
				c-1.239-40.545-2.868-66.289-43.248-69.9C320.506,147.324,302.103,145.896,294.267,148.188L294.267,148.188z M322.893,196.321
				l-0.025-10.667c27.072,1.511,21.503,13.514,21.499,59.168c-0.003,31.331,5.939,64.695-21.176,62.1
				C322.143,272.716,322.891,231.28,322.893,196.321z"/>
			<path fill-rule="evenodd" clip-rule="evenodd" d="M392.525,444.627c5.729-2.024,23.291-15.771,25.672-19.272
				c4.221-6.212,1.651-34.09,1.662-43.96c1.364-2.933,16.742-15.887,20.74-20.438c20.13-22.917,31.508-64.005,23.783-96.438
				c-5.466-22.947-17.734-39.739-29.031-53.982c-6.053-7.631-34.045-36.065-42.75-39.295L392.525,444.627L392.525,444.627z
				 M419.872,332.728l0.17-89.09c10.766,6.972,17.216,26.49,18.502,44.532C439.785,305.55,430.102,328.244,419.872,332.728z"/>
			<path fill-rule="evenodd" clip-rule="evenodd" d="M277.242,465.552l0.1-32.074c-55.5-11.389-98.293-65.396-98.551-124.836
				c-0.277-63.858,46.369-113.542,98.535-125.076l-0.074-32.831c-70.613,14.424-129.074,74.751-129.734,156.613
				C146.86,389.055,206.421,452.326,277.242,465.552z"/>
			<path fill-rule="evenodd" clip-rule="evenodd" d="M236.379,396.713l0.213-34.587c-0.503-14.091-14.057-9.244-17.051-43.629
				l31.357-0.01l-0.012,88.409c5.629,4.245,17.833,9.182,26.451,11.052l-0.025-218.833c-39.146,9.503-69.398,42.262-79.821,80.694
				c-9.059,33.404-1.064,70.104,18.693,96.351C219.801,380.964,231.641,394.597,236.379,396.713L236.379,396.713z M220.168,291.733
				c2.112-11.521,6.435-21.405,11.578-29.939c3.39-5.623,13.563-19.257,19.481-21.424l0.034,51.593L220.168,291.733z"/>
		</g>
	</g>
	<g>
		<path fill-rule="evenodd" clip-rule="evenodd" d="M95.036,399.357h0.154c0.622-0.675,1.043-1.712,1.592-2.506
			c0.626-0.905,1.138-1.72,1.703-2.634c0.52-0.839,1.036-1.671,1.611-2.506l26.049-41.414c0.53-0.857,1.089-1.878,1.609-2.7
			c2.458-3.88,2.302-2.776,1.759-5.689c-0.429-2.307-0.837-4.674-1.195-7.167c-1.642-11.441-2.016-19.826-1.948-31.824
			c0.008-1.341,0.21-2.37,0.202-3.888c-0.055-10.271,3.828-30.332,6.515-39.905c1.756-6.261,4.033-12.869,6.502-18.842l5.178-11.688
			l5.87-10.988c1.087-1.784,2.105-3.454,3.178-5.24c1.887-3.14,3.908-5.925,6.017-8.927c3.321-4.726,6.539-8.625,10.099-13.019
			l6.054-6.708c1.458-1.462,2.765-2.757,4.225-4.218l4.309-4.125c1.473-1.416,2.89-2.574,4.396-4.03l4.666-3.774
			c6.874-5.49,12.254-9.456,19.758-13.967c14.002-8.417,31.47-16.324,47.226-20.236c2.208-0.548,2.406-0.156,4.474-3.964
			l13.027-20.706c0.281-0.472,0.383-0.775,0.685-1.253c0.306-0.486,0.49-0.741,0.854-1.317l4.94-7.815
			c0.613-0.922,1.048-1.622,1.592-2.519c0.358-0.59,0.584-0.827,0.874-1.308l13.916-22.037c-0.486-0.724,0.119-0.213-0.72-0.478
			l-17.743-0.617c-1.786-0.033-4.093-0.396-5.824-0.412c-2.055-0.019-4.083-0.339-6.061-0.395
			c-4.581-0.129-12.569-1.156-17.296-1.596c-18.485-1.715-47.125-7.055-64.839-11.441c-6.699-1.659-13.503-3.326-20.055-5.246
			c-8.336-2.442-21.14-6.145-29.17-9.143c-1.104-0.412-8.289-2.667-9.224-3.321h-0.432l-88.263,88.383
			c0.135,0.952,2.599,5.839,3.063,6.967c1.003,2.436,2.098,4.686,3.079,7.083c20.6,50.251,27.461,94.651,33.884,148.799
			c2.882,24.301,5.306,48.593,8.444,72.93l3.835,26.584C94.043,393.322,94.724,396.613,95.036,399.357z"/>
		<path fill-rule="evenodd" clip-rule="evenodd" fill="#FFFFFF" d="M47.811,129.233l5.724,13.414
			c14.213,35.596,21.653,67.199,27.658,105.948c6.185,39.911,8.961,79.592,14.52,118.852c0.375,2.643,1.869,15.371,2.509,16.732
			c0.799-0.7,4.24-6.548,5.147-8.002c1.701-2.728,3.359-5.472,5.099-8.093l10.187-16.194c7.121-11.724,5.71-5.362,3.869-19.155
			c-6.619-49.581,7.434-99.757,36.4-137.334c1.859-2.412,3.641-4.752,5.581-6.957l5.843-6.698c0.498-0.569,1.012-0.957,1.517-1.513
			c0.57-0.628,0.969-1.071,1.547-1.689c10.224-10.91,25.827-23.049,38.508-30.471c10.812-6.329,21.43-11.416,34.2-15.947
			l11.897-3.693c2.199-0.586,2.064-1.621,4.379-5.14c3.299-5.015,6.384-10.214,9.682-15.401l14.516-23.107
			c0.67-1.051,4.635-6.999,4.595-7.639c-15.092-0.914-29.338-1.56-44.18-3.445c-13.951-1.773-27.531-3.896-41.065-6.688
			c-13.096-2.703-25.958-5.808-38.444-9.323c-10.049-2.829-21.844-6.464-31.794-9.969c-1.485-0.523-3.125-1.217-4.613-1.547
			c-1.283,0.953-58.562,58.579-62.366,62.299c-2.556,2.499-12.841,13.172-15.593,15.546
			C51.953,125.035,48.679,128.687,47.811,129.233z"/>
	</g>
	<g>
		<path fill-rule="evenodd" clip-rule="evenodd" d="M242.971,646.909v0.612c1.244,0.787,2.511,1.843,3.721,2.753l19.357,13.789
			c4.454,2.981,12.002,8.141,15.974,10.493l8.24,5.094c2.461,1.639,5.569,3.321,8.344,4.998l8.011,4.715
			c0.045,0.026,0.103,0.063,0.143,0.088l0.282,0.188h0.615c0.435-0.357,1.212-0.777,1.713-1.118l13.299-8.594
			c8.74-5.894,17.313-11.758,25.671-18.101c1.055-0.8,2.575-1.765,3.581-2.66c1.04-0.928,2.35-1.743,3.59-2.679
			c6.474-4.884,13.357-10.765,19.577-16.069l14.194-12.479c0.574-0.557,0.99-1.005,1.558-1.574c0.579-0.578,1.074-0.883,1.662-1.457
			c1.105-1.077,2.036-2.04,3.127-3.133c1.072-1.072,2.158-1.964,3.223-3.025l23.858-25.959c2.036-2.229,3.786-4.652,5.686-6.828
			c1.929-2.21,3.767-4.646,5.534-6.961c1.813-2.373,3.6-4.664,5.329-7.173c4.564-6.621,8.315-11.529,12.765-18.515
			c3.004-4.72,6.754-10.745,9.453-15.558c6.077-10.83,9.407-17.383,14.915-28.852c0.373-0.774,0.58-1.433,0.947-2.171
			c3.733-7.485,11.116-26.489,13.458-33.445c3.907-11.604,7.129-21.175,10.311-33.234c8.563-32.455,12.485-54.334,18.1-88.235
			l8.318-54.044c0.599-3.475,1.131-7.277,1.693-10.771c1.685-10.485,3.46-21.667,5.561-31.938
			c3.573-17.477,7.628-33.76,11.537-51.076c1.525-6.757,3.389-13.494,4.805-20.209c1.24-5.888,3.446-14.22,4.867-20.148
			c0.087-0.36,4.58-19.3,5.014-20.011v-0.608h-0.207l-25.951,39.282c-8.725,12.867-17.221,26.26-25.896,39.158
			c-4.6,6.84-10.594,16.844-15.081,24.104c-2.181,3.529-5.506,8.463-7.496,11.899c-3.333,5.753-4.055,4.758-3.023,8.937
			c1.577,6.382,4.252,21.636,4.387,28.185c0.04,1.957,0.388,4.352,0.406,6.245l0.194,6.255c0.095,2.262-0.204,4.003-0.201,6.262
			c0.005,6.601-0.649,11.851-1.396,18.333c-1.528,13.244-5.723,29.11-10.479,41.38c-1.699,4.385-5.779,14.102-8.055,18.003
			c-1.566,2.689-2.89,5.615-4.573,8.334c-4.3,6.945-10.721,16.953-16.022,22.961c-1.065,1.208-3.067,3.962-4.426,5.37l-9.506,10.086
			c-2.439,2.4-9.357,8.613-12.091,10.634c-3.747,2.771-7.179,5.819-11.146,8.456l-11.832,7.539
			c-6.8,4.061-10.401,5.669-17.218,8.842c-3.035,1.413-6.067,2.693-9.246,3.893c-7.934,2.994-16.618,5.755-24.989,7.588
			c-0.816,0.178-2.05,0.36-2.711,0.582c-1.026,0.344-4.36,6.178-5.306,7.805l-16.071,25.817
			c-4.742,7.634-10.376,16.333-15.063,24.113c-1.639,2.72-3.209,5.074-5.006,7.932c-1.703,2.711-3.387,5.366-5.024,8.095
			c-0.851,1.418-1.729,2.769-2.517,3.959l-4.943,7.982c-4.473,6.806-9.274,15.132-13.772,22.086l-6.265,9.983
			c-0.755,1.447-1.5,2.402-2.483,3.989l-12.502,19.992c-0.551,0.897-0.832,1.244-1.317,2.052c-0.351,0.583-0.839,1.47-1.159,1.957
			C251.771,633.003,243.563,646.477,242.971,646.909z"/>
		<path fill-rule="evenodd" clip-rule="evenodd" fill="#FFFFFF" d="M250.211,646.148l13.611,9.711
			c13.222,9.166,25.556,17.05,39.43,25.181c1.334,0.781,2.517,1.638,3.91,2.237c0.629,0.043,12.859-8.166,14.304-9.139
			c19.574-13.186,35.607-25.183,53.35-40.65l7.701-6.896c2.251-2.031,9.02-8.201,10.646-9.989c1.91-2.099,3.917-4.145,5.885-5.997
			l9.958-10.471c0.515-0.625,0.991-0.996,1.522-1.603c16.049-18.302,27.025-32.161,40.348-53.667
			c11.583-18.694,22.331-40.299,30.967-63.04c18.093-47.637,27.275-98.777,35.377-152.658c4.026-26.786,7.824-54.666,13.359-80.694
			c4.012-18.86,8.683-38.608,13.224-57.464c0.749-3.113,1.437-6.243,2.234-9.408c0.384-1.524,0.76-3.11,1.138-4.694
			c0.309-1.297,1.29-3.744,0.906-4.714c-1.248,2.247-3.325,5.018-4.818,7.281l-24.321,36.754c-3.258,4.905-6.483,9.59-9.599,14.789
			c-5.849,9.757-12.847,20.222-18.753,30.03c-2.778,4.615-2.206,2.357-0.82,9.081c9.307,45.182,1.593,92.316-20.633,130.607
			c-4.487,7.73-9.293,14.952-14.644,21.835l-5.517,6.779c-9.015,9.934-14.192,15.559-24.873,24.107
			c-21.41,17.138-46.334,29.64-73.526,36.092c-4.037,0.958-2.764-0.042-6.409,5.915c-12.16,19.872-25.192,40.254-37.595,60.168
			l-28.212,45.164c-6.129,9.708-12.578,20.513-18.741,30.026C258.891,631.945,250.569,645.056,250.211,646.148z"/>
	</g>
</g>
</svg>
