<?xml version="1.0" encoding="UTF-8" standalone="no"?>
<svg
   xmlns:dc="http://purl.org/dc/elements/1.1/"
   xmlns:cc="http://creativecommons.org/ns#"
   xmlns:rdf="http://www.w3.org/1999/02/22-rdf-syntax-ns#"
   xmlns:svg="http://www.w3.org/2000/svg"
   xmlns="http://www.w3.org/2000/svg"
   xmlns:sodipodi="http://sodipodi.sourceforge.net/DTD/sodipodi-0.dtd"
   xmlns:inkscape="http://www.inkscape.org/namespaces/inkscape"
   inkscape:version="1.0 (4035a4fb49, 2020-05-01)"
   sodipodi:docname="fhdfhjd.svg"
   viewBox="0 0 512.00001 581.00239"
   height="581.00238"
   width="512"
   id="svg10"
   version="1.1">
  <metadata
     id="metadata16">
    <rdf:RDF>
      <cc:Work
         rdf:about="">
        <dc:format>image/svg+xml</dc:format>
        <dc:type
           rdf:resource="http://purl.org/dc/dcmitype/StillImage" />
        <dc:title></dc:title>
      </cc:Work>
    </rdf:RDF>
  </metadata>
  <defs
     id="defs14" />
  <sodipodi:namedview
     inkscape:current-layer="g18"
     inkscape:window-maximized="1"
     inkscape:window-y="-8"
     inkscape:window-x="-8"
     inkscape:cy="1051.9635"
     inkscape:cx="374.09554"
     inkscape:zoom="0.23151093"
     showgrid="false"
     id="namedview12"
     inkscape:window-height="705"
     inkscape:window-width="1366"
     inkscape:pageshadow="2"
     inkscape:pageopacity="0"
     guidetolerance="10"
     gridtolerance="10"
     objecttolerance="10"
     borderopacity="1"
     bordercolor="#666666"
     pagecolor="#ffffff" />
  <g
     transform="translate(-883.88428,74.200464)"
     id="g18"
     inkscape:label="Image"
     inkscape:groupmode="layer">
    <g
       transform="matrix(0.26085879,0,0,0.26085879,281.4823,-34.562821)"
       id="g37">
      <g
         id="g22"
         transform="translate(2309.0605,-152.71564)">
        <path
           style="fill:#040607;stroke-width:0.81287"
           d="M 962.84508,2220.4631 C 844.54869,2170.69 734.49578,2106.2446 632.41323,2026.967 408.55686,1853.1195 232.63869,1616.4182 123.44596,1342.1418 26.907227,1099.6503 -13.775033,835.21146 4.5043727,569.00931 12.530441,452.12603 32.611563,334.26029 63.570801,222.32007 c 2.720263,-9.83573 5.121381,-18.72147 5.33582,-19.7461 0.214438,-1.02462 0.618665,-1.75422 0.898282,-1.62134 0.279616,0.13287 6.909748,3.40729 14.733627,7.27648 143.61307,55.99354 255.75917,81.13994 401.96445,71.43383 131.16284,-9.58938 245.62377,-42.77973 337.34125,-97.81918 32.17048,-19.30545 58.30874,-39.20773 82.40369,-62.74414 35.84514,-35.014204 59.08666,-70.187547 72.40196,-109.5722939 l 2.96243,-8.76225931 1.83708,5.91721261 C 1003.1386,70.09981 1058.0705,132.39892 1136.4971,180.25609 c 83.1707,50.75212 191.9336,84.88907 307.4446,96.49633 35.7806,3.59546 46.9363,4.09174 91.9771,4.09174 43.9162,0 55.8516,-0.50315 88.5971,-3.73485 95.3461,-9.4099 184.0369,-33.73011 257.9051,-70.72107 5.9326,-2.97091 10.9472,-5.1419 11.1435,-4.8244 0.795,1.28641 11.4945,40.9716 17.1019,63.43193 52.3024,209.49934 65.5031,431.74248 38.5447,648.92748 -14.3401,115.52735 -39.7844,227.72095 -76.7236,338.30365 -144.141,431.506 -451.316,780.3271 -840.5484,954.5082 -16.838,7.535 -49.73754,21.3701 -50.64495,21.2975 -0.31125,-0.025 -8.61334,-3.4311 -18.44907,-7.5695 z"
           id="path24"
           sodipodi:nodetypes="sssssssccssscsssssssssssss" />
        <path
           style="fill:#ea202c;stroke-width:0.81287"
           d="M 962.43864,2159.504 C 697.38626,2038.3847 471.45033,1839.4407 308.714,1583.8781 232.69389,1464.4954 171.29415,1332.3948 128.3544,1195.8372 83.442341,1053.0073 58.200913,906.48419 52.03778,752.82959 50.9699,726.20598 50.972476,649.07544 52.042133,622.54721 56.283314,517.36303 69.051749,417.96535 91.010938,319.18911 c 3.847559,-17.30702 11.863052,-51.12495 12.588892,-53.11345 0.23354,-0.63981 3.36478,0.24339 9.54239,2.69152 12.18109,4.82727 41.9457,14.92463 57.15414,19.389 128.37099,37.68278 277.42445,45.19348 418.22186,21.07393 103.66094,-17.75782 200.23419,-53.72192 273.0449,-101.68254 27.12232,-17.8656 46.20836,-33.30644 67.59547,-54.68578 21.03294,-21.02522 34.9857,-38.53452 47.07983,-59.080349 l 5.26456,-8.94368 6.14359,10.214481 c 12.67113,21.067258 25.30363,36.846168 46.27703,57.803508 21.7004,21.68383 40.1463,36.61085 67.5361,54.65268 160.5671,105.76626 414.7328,143.3918 637.6767,94.39873 36.6719,-8.05886 80.8741,-21.27917 110.8036,-33.13998 6.1775,-2.44813 9.3088,-3.33133 9.5423,-2.69152 0.7259,1.9885 8.7414,35.80643 12.589,53.11345 21.9592,98.77624 34.7276,198.17392 38.9687,303.3581 1.0716,26.57583 1.0716,103.70655 0,130.28238 -10.8218,268.39041 -80.8663,520.51251 -208.2985,749.76141 -108.0602,194.399 -255.9289,364.7702 -429.3799,494.7227 -75.4546,56.5318 -154.5026,105.0029 -236.5453,145.0461 -22.0391,10.7568 -54.25879,25.5934 -55.45013,25.5337 -0.35092,-0.018 -8.86825,-3.7928 -18.92753,-8.3895 z"
           id="path28"
           sodipodi:nodetypes="ssssssssssssscssssssssssssss" />
        <path
           style="fill:#fefefe;stroke-width:0.81287"
           d="m 969.75448,1564.7169 c -51.31229,-2.1121 -104.59863,-12.8127 -151.66521,-30.4562 -108.94343,-40.8388 -199.71272,-117.231 -258.81051,-217.817 -9.27878,-15.7928 -25.60221,-49.2104 -32.41403,-66.3586 -17.03859,-42.8934 -27.94463,-87.5936 -33.19276,-136.0461 -1.8066,-16.6792 -2.06673,-76.0785 -0.40761,-93.0737 8.27109,-84.72526 35.2307,-161.55127 81.01111,-230.85522 68.88605,-104.28203 174.81827,-179.60295 295.02212,-209.76941 41.8773,-10.50956 78.51987,-14.92835 123.21726,-14.85899 78.66785,0.12208 149.68225,16.74288 219.88145,51.46292 88.4797,43.76144 161.0612,111.62453 211.7217,197.95802 8.5643,14.59501 22.8482,43.49272 29.7205,60.12787 42.4215,102.68496 49.2027,219.07011 18.9697,325.57921 -37.6451,132.6218 -128.6699,244.4023 -251.0639,308.312 -55.8421,29.1588 -117.7335,47.6007 -180.635,53.824 -12.1606,1.2031 -46.14771,2.9321 -53.06524,2.6996 -1.78831,-0.06 -10.01862,-0.3879 -18.28958,-0.7284 z"
           id="path30"
           sodipodi:nodetypes="sssssssssssssssss" />
        <path
           style="fill:#263a54;stroke-width:0.81287"
           d="M 950.65202,2094.0796 C 871.73555,2053.9891 804.6515,2012.3409 734.32267,1959.7744 672.19383,1913.3369 626.29417,1873.4054 568.15444,1815.2121 528.51377,1775.535 505.82437,1750.838 474.6566,1713.4417 311.52266,1517.7072 198.05907,1285.4121 142.77208,1033.9712 94.613986,814.95197 92.514683,581.87961 136.72811,362.94666 c 7.25377,-35.91867 6.60111,-33.34133 8.41657,-33.23688 0.86815,0.0499 7.43111,1.80986 14.58437,3.91091 56.80049,16.68342 122.53187,28.33513 188.17951,33.35719 57.22939,4.37806 124.50455,3.6347 182.08299,-2.01192 94.42424,-9.26002 182.30135,-30.82887 260.20143,-63.8647 19.83615,-8.4121 56.37065,-26.76939 73.1948,-36.7778 36.06657,-21.45541 64.83389,-43.25856 89.74008,-68.01525 9.43117,-9.3746 22.18625,-23.58723 26.78799,-29.84914 l 1.62525,-2.21156 4.97208,6.27591 c 16.18732,20.43234 40.89652,43.75616 67.03392,63.27572 39.677,29.6309 92.9924,58.05012 147.5591,78.65479 70.2913,26.54242 149.1167,44.38533 231.9844,52.51203 57.5257,5.64145 126.2079,6.39671 182.083,2.00227 67.854,-5.33653 133.8251,-17.12359 190.92,-34.11165 6.8722,-2.04476 12.6775,-3.53513 12.9007,-3.31193 0.6073,0.60726 2.1937,7.70324 6.65,29.74409 42.1253,208.35598 43.2323,424.06705 3.2474,632.81964 -50.6786,264.58182 -166.8771,511.81302 -337.1576,717.35822 -50.8807,61.4177 -112.0574,124.2683 -172.4453,177.1634 -84.9573,74.4161 -181.7796,141.3894 -280.0339,193.7033 -15.3392,8.1671 -57.0244,29.0744 -57.91125,29.0454 -0.33848,-0.011 -14.14971,-6.8956 -30.69163,-15.2991 z m -68.07644,-540.68 c 0.3345,0 4.8148,0.8919 9.9562,1.977 53.2922,11.2463 118.36732,12.7748 174.31572,4.0941 7.1284,-1.106 13.2547,-2.0109 13.614,-2.0109 0.3593,0 0.7453,97.8697 0.858,217.4883 l 0.2047,217.4882 13.0059,-8.0232 c 59.3432,-36.6082 115.1359,-76.7529 170.0931,-122.3876 l 15.6478,-12.9934 v -187.9606 -187.9607 l 6.7396,-4.8966 c 34.6618,-25.1834 71.3933,-60.8418 98.3723,-95.4983 43.2715,-55.5854 75.2593,-121.0379 91.4609,-187.1444 0.8766,-3.5766 1.9072,-7.6003 2.2904,-8.9415 0.3931,-1.3765 0.8735,99.2688 1.1029,231.093 l 0.4065,233.5316 11.8749,-15.2759 c 69.3577,-89.2222 130.1127,-188.8505 178.2562,-292.3108 l 8.6157,-18.515 V 856.2518 397.35075 l -3.0483,0.48841 c -14.2158,2.27776 -58.2446,6.23028 -87.9932,7.89927 -19.3583,1.08606 -90.8753,1.36149 -101.4056,0.39054 l -6.7062,-0.61835 v 275.34799 c 0,151.44139 -0.1619,275.18604 -0.3598,274.98811 -0.198,-0.19793 -2.0433,-6.9346 -4.1007,-14.97039 -4.6682,-18.23244 -14.8116,-48.70817 -21.9078,-65.82129 -34.9149,-84.20005 -92.8164,-158.1119 -166.4929,-212.52965 l -7.1049,-5.24769 V 517.75126 378.22482 l -11.9898,-3.04747 c -64.8921,-16.4937 -132.0082,-41.75127 -178.8315,-67.29917 l -8.332,-4.54609 v 134.97239 134.9724 l -2.6389,-0.52778 c -7.3711,-1.47423 -32.024,-4.66641 -45.3204,-5.86833 -18.3002,-1.65422 -60.62415,-1.89592 -78.44203,-0.44795 -22.24842,1.80801 -60.0938,7.34818 -70.92294,10.38236 l -1.82896,0.51245 V 440.33736 303.34708 l -9.1448,4.93638 c -47.94602,25.88133 -113.34081,50.45466 -178.01863,66.89389 l -11.98984,3.04747 v 146.85311 146.85311 l -10.77053,8.97418 c -95.6391,79.68799 -158.79729,192.73924 -175.676,314.45464 -3.70987,26.75254 -4.17348,34.72424 -4.13652,71.12614 0.0375,37.015 0.65846,46.3443 4.92282,73.9712 5.84759,37.8841 15.79824,74.5966 29.71376,109.6279 6.81182,17.1482 23.13525,50.5658 32.41403,66.3586 29.75583,50.6452 67.68343,95.4472 112.35547,132.72 l 11.17697,9.3257 v 195.2714 195.2713 l 15.64776,12.9991 c 54.70431,45.4447 110.97224,85.9367 169.92407,122.2823 l 13.175,8.1228 0.20468,-219.5204 c 0.11258,-120.7363 0.47838,-219.5186 0.81287,-219.5163 z m 82.70811,-22.7763 c -93.17154,-5.8007 -180.12756,-37.7218 -253.63928,-93.1097 -37.10422,-27.9565 -72.77283,-64.609 -100.08735,-102.8483 -66.31134,-92.8333 -96.16207,-208.3514 -83.18256,-321.9047 15.64126,-136.84018 90.97476,-259.52084 206.46041,-336.22099 98.63354,-65.50776 218.56559,-90.67989 336.12199,-70.54749 61.3198,10.50148 122.0017,34.51121 175.1735,69.31005 110.8961,72.57714 186.0096,189.1484 205.9695,319.65126 4.007,26.19927 4.9017,38.93507 4.911,69.90687 0.01,31.1108 -0.9505,44.9577 -4.9018,70.7197 -13.2567,86.4312 -50.5842,167.0859 -108.3382,234.0895 -72.9416,84.6234 -175.6412,140.9728 -285.82,156.8239 -27.6795,3.9822 -66.93766,5.7318 -92.66721,4.1299 z m 49.99151,-9.7671 c 83.0376,-4.6181 160.7243,-30.4973 229.2295,-76.3611 97.5827,-65.3311 166.6335,-165.6954 192.1227,-279.2474 12.3701,-55.1078 14.3569,-113.7428 5.7429,-169.4814 -10.3778,-67.15123 -36.3004,-132.55381 -74.4248,-187.77307 C 1263.4546,656.64849 1083.2883,582.65562 903.86669,617.39964 785.10523,640.39717 678.14323,712.19867 610.8594,814.08975 c -34.15513,51.72271 -57.09358,108.49927 -68.21507,168.84376 -5.16613,28.03109 -7.23028,51.53619 -7.23028,82.33319 0,40.1178 3.81635,71.7064 13.25782,109.7375 22.92224,92.3328 72.25428,172.0446 146.73882,237.1037 7.57265,6.6144 24.56601,19.6867 35.76251,27.5106 82.92658,57.9479 183.86965,86.8121 284.102,81.2377 z m -46.74003,-43.0669 c -57.37321,-3.5433 -110.91455,-17.8136 -161.06439,-42.9283 -39.87573,-19.9695 -72.15107,-43.078 -104.56807,-74.8685 -22.8299,-22.3887 -38.15706,-40.7963 -55.12723,-66.2071 -58.64836,-87.8184 -81.32219,-193.8902 -63.61753,-297.61267 19.11428,-111.98078 83.91986,-211.58919 178.72099,-274.70042 45.89064,-30.55042 95.90961,-51.20377 149.56817,-61.75819 55.26235,-10.86987 114.36929,-10.03742 169.38799,2.38565 4.6418,1.0481 8.7615,2.22755 9.1549,2.62098 0.394,0.39389 0.6195,14.20806 0.502,30.74073 -0.1862,26.20152 -0.3686,29.98925 -1.4327,29.74156 -0.6706,-0.15612 -6.8101,-1.69505 -13.6435,-3.41985 -28.3938,-7.16695 -52.3978,-10.00562 -84.71382,-10.01809 -24.9639,-0.01 -38.14955,0.98233 -58.31996,4.38745 -97.41765,16.4458 -183.41398,72.67894 -237.88963,155.55639 -49.81128,75.78123 -68.46306,167.89456 -52.06834,257.14386 11.45972,62.3842 39.52963,120.4178 81.69175,168.8949 10.59939,12.1869 32.29166,33.0417 44.67254,42.9477 11.7126,9.3714 36.27341,26.0664 48.4457,32.9305 78.43054,44.2283 172.02111,56.7836 259.02966,34.7491 7.4924,-1.8974 13.8023,-3.2701 14.022,-3.0504 0.2196,0.2196 0.3993,13.8818 0.3993,30.3602 v 29.9609 l -1.8401,0.6996 c -3.1748,1.207 -24.909,5.575 -36.3962,7.3146 -25.5538,3.8698 -61.11422,5.5991 -84.91353,4.1294 z m 217.63723,-83.0436 0.2121,-34.2806 8.8755,-6.3595 c 43.0165,-30.8219 77.539,-68.7885 103.2212,-113.5188 23.0663,-40.1742 38.034,-84.5957 43.955,-130.4506 0.6813,-5.2761 1.2387,-10.8544 1.2387,-12.3963 v -2.8034 h -30.4826 -30.4827 v 47.2628 47.2629 l -5.6784,11.7565 c -7.5436,15.6183 -12.4032,24.1122 -22.4401,39.2216 -9.0163,13.5731 -18.8674,26.277 -27.4192,35.3599 l -5.3573,5.6901 -0.035,-279.0178 c -0.024,-184.81831 0.2383,-279.0178 0.7748,-279.0178 0.8872,0 9.0174,5.66844 18.9859,13.23703 28.5254,21.65796 59.178,52.68749 81.2289,82.22786 99.2843,133.00552 108.9822,312.95531 24.5567,455.66131 -32.3942,54.7565 -77.6091,101.982 -131.0247,136.8509 -10.1272,6.6109 -28.7347,17.5944 -29.8072,17.5944 -0.2934,0 -0.438,-15.4262 -0.3215,-34.2805 z m 157.5025,-361.9522 c 0,-4.4706 -2.2692,-21.0403 -4.5142,-32.96285 -6.0511,-32.13504 -16.7611,-63.64662 -31.6095,-93.00262 -6.9213,-13.6837 -19.5241,-35.20981 -23.1913,-39.6115 -1.5884,-1.90659 -1.5963,-1.50129 -1.6232,83.23224 l -0.027,85.14823 h 30.4827 30.4826 z m -309.7037,32.5779 V 751.90517 h 1.8578 c 5.8446,0 35.2034,6.54401 49.1499,10.95542 l 6.7061,2.12123 v 274.71488 c 0,181.4452 0.2743,274.7148 0.8078,274.7148 1.3135,0 16.9249,-7.1515 24.3912,-11.1735 22.8006,-12.2823 43.628,-27.492 62.5192,-45.656 3.7606,-3.6159 6.9613,-6.5744 7.1126,-6.5744 0.1513,0 0.2751,14.2001 0.2751,31.5558 v 31.5558 l -9.29,6.8232 c -29.1882,21.4376 -63.0286,38.0776 -98.0776,48.2264 -12.1136,3.5077 -32.4042,8.0029 -41.1845,9.124 l -4.2676,0.545 z m -96.70911,305.3437 c -3.06078,-0.5726 -13.07242,-4.688 -20.54725,-8.4463 -9.99107,-5.0234 -18.03857,-10.7687 -26.36131,-18.8198 -11.97488,-11.584 -19.07481,-23.1993 -23.3949,-38.2732 l -2.06444,-7.2035 v -63.7195 -63.7194 h 26.41829 26.41829 v 57.5543 57.5541 l 2.07192,4.1579 c 4.54972,9.1301 15.75994,13.8874 27.54892,11.6908 6.4737,-1.2062 9.7807,-3.6006 12.46707,-9.0265 l 2.21353,-4.4708 0.23776,-75.1905 c 0.16876,-53.3518 -0.026,-76.2529 -0.66931,-78.8484 -0.49903,-2.0119 -2.28019,-6.5843 -3.9582,-10.1609 -2.86975,-6.1165 -5.46265,-9.1146 -43.63212,-50.4509 -25.66866,-27.7983 -41.41884,-45.4924 -42.86095,-48.1513 -1.25402,-2.3118 -3.17442,-6.833 -4.26757,-10.047 l -1.98763,-5.8439 V 908.37037 c 0,-114.81589 -0.49846,-106.27075 7.05124,-120.88833 7.61863,-14.75104 19.46557,-23.77188 37.56657,-28.60507 15.85308,-4.23294 31.32217,-4.37378 45.60707,-0.41523 26.51161,7.34674 45.82303,28.02375 51.32443,54.9539 1.425,6.97516 1.5125,11.50594 1.3179,68.28925 l -0.2084,60.8184 H 983.57328 959.5936 l -0.40644,-48.40221 c -0.45098,-53.70936 -0.0805,-50.29864 -5.95395,-54.77869 -8.92719,-6.80909 -24.36018,-6.92241 -31.97702,-0.23468 -5.39722,4.73879 -5.15116,1.24337 -5.15116,73.17086 v 65.31983 l 2.04298,6.00654 c 3.81342,11.21193 6.60636,14.69158 42.71049,53.21136 18.85689,20.1185 35.38832,38.0423 36.73655,39.8306 1.34823,1.7883 3.68245,5.8782 5.18715,9.0886 5.5152,11.7669 5.2336,4.3244 4.9839,131.7349 -0.2096,107.002 -0.3274,115.569 -1.6482,119.9681 -6.014,20.0304 -19.38939,29.9653 -44.47083,33.0318 -6.8173,0.8335 -20.5036,0.9709 -24.38498,0.2448 z m -106.51277,-32.9954 c -10.72477,-6.398 -16.80122,-10.4658 -27.83651,-18.6351 l -8.73835,-6.4688 v -111.6847 -111.6847 h -35.35987 c -33.13583,0 -35.35959,0.09 -35.35546,1.4225 0.0104,3.3474 3.48645,24.9366 5.39883,33.5309 7.12763,32.0319 21.81393,65.6498 40.48258,92.6673 2.31693,3.3531 4.48448,6.5537 4.81678,7.1126 0.47868,0.805 -5.29381,1.0161 -27.78742,1.0161 h -28.39161 l -8.1563,-16.0542 c -18.36,-36.1384 -28.54951,-70.0131 -33.19239,-110.3472 -1.92425,-16.7165 -1.92425,-49.9388 0,-66.6554 10.58533,-91.95797 57.25242,-171.26657 132.52261,-225.21612 8.47762,-6.07629 29.3862,-19.05142 30.70012,-19.05142 0.36067,0 0.65574,124.91787 0.65574,277.59524 0,152.6774 -0.27434,277.5845 -0.60965,277.5713 -0.33531,-0.013 -4.45242,-2.3164 -9.1491,-5.1183 z m -36.60953,-375.89074 -0.0346,-79.45809 -3.26817,3.65792 c -31.92225,35.72915 -54.56811,81.29143 -63.63348,128.02711 -1.25932,6.4923 -3.74877,23.7846 -3.74877,26.0398 0,1.0283 4.83946,1.1913 35.35986,1.1913 h 35.35987 l -0.0346,-79.45804 z m 311.36401,102.15744 v -45.5817 l 16.0542,0.2641 c 14.2933,0.2353 16.4616,0.4528 19.769,1.9828 7.3482,3.3994 12.6943,11.1251 15.9672,23.0741 2.1028,7.6775 2.0755,35.4792 -0.042,43.0171 -3.2138,11.4386 -9.5289,19.7396 -16.6376,21.8694 -1.9756,0.5919 -9.2688,0.956 -19.1506,0.956 h -15.9599 z m 32.1191,21.8738 c 3.9077,-4.264 5.2749,-9.7044 5.2633,-20.9442 -0.019,-18.8616 -3.9852,-25.3387 -15.8825,-25.9395 l -6.0553,-0.3058 v 25.3713 25.3712 l 6.9719,-0.2866 c 6.8449,-0.2814 7.0216,-0.3409 9.7026,-3.2664 z m 28.0334,-21.8128 v -45.5207 h 20.3468 20.3468 l -0.2283,9.9576 -0.2282,9.9577 -12.3963,0.2244 -12.3963,0.2244 v 6.8659 6.8659 l 11.5834,0.2255 11.5834,0.2256 0.229,9.5512 0.2291,9.5512 h -11.8125 -11.8124 v 8.5145 8.5145 l 12.8027,0.2239 12.8027,0.2238 0.2283,9.9577 0.2282,9.9577 h -20.7532 -20.7532 z M 482.84506,1023.3346 V 405.48365 l -6.29974,0.62498 c -9.83372,0.97558 -82.3711,0.70851 -101.81203,-0.37486 -30.89282,-1.72153 -76.86073,-5.85157 -88.39966,-7.94237 l -2.64183,-0.47868 v 458.88657 458.88661 l 6.26025,13.6848 c 7.84428,17.1475 32.79247,67.1383 42.12254,84.4046 41.22289,76.287 86.44963,145.7091 139.67248,214.3946 5.80274,7.4885 10.67363,13.6155 10.82421,13.6155 0.15058,0 0.27378,-278.0329 0.27378,-617.8508 z m 181.9793,1028.5536 c -1.01111,-1.2893 -0.98235,-1.318 0.30691,-0.3069 0.78238,0.6136 1.42252,1.2538 1.42252,1.4225 0,0.6691 -0.66752,0.2384 -1.72943,-1.1156 z m 631.70404,1.1156 c 0,-0.1687 0.6401,-0.8089 1.4225,-1.4225 1.2893,-1.0111 1.318,-0.9824 0.307,0.3069 -1.062,1.354 -1.7295,1.7847 -1.7295,1.1156 z m -657.7159,-20.6245 c -1.0111,-1.2893 -0.98235,-1.3179 0.30691,-0.3069 1.35404,1.0619 1.78464,1.7295 1.11562,1.7295 -0.16879,0 -0.80893,-0.6402 -1.42253,-1.4226 z m 683.7278,1.1156 c 0,-0.1687 0.6401,-0.8089 1.4225,-1.4225 1.2893,-1.011 1.318,-0.9824 0.3069,0.3069 -1.0619,1.354 -1.7294,1.7847 -1.7294,1.1156 z m -691.04363,-6.8057 c -1.0111,-1.2892 -0.98235,-1.3179 0.30691,-0.3069 1.35404,1.0619 1.78464,1.7295 1.11561,1.7295 -0.16879,0 -0.80892,-0.6402 -1.42252,-1.4226 z m 698.35943,1.1156 c 0,-0.1687 0.6401,-0.8089 1.4225,-1.4225 1.2893,-1.011 1.318,-0.9823 0.307,0.3069 -1.062,1.354 -1.7295,1.7847 -1.7295,1.1156 z m -705.67526,-6.8056 c -1.01111,-1.2893 -0.98236,-1.318 0.3069,-0.307 0.78239,0.6136 1.42253,1.2538 1.42253,1.4225 0,0.6691 -0.66752,0.2385 -1.72943,-1.1155 z m 712.99106,1.1155 c 0,-0.1687 0.6402,-0.8089 1.4226,-1.4225 1.2893,-1.011 1.3179,-0.9823 0.3069,0.307 -1.0619,1.354 -1.7295,1.7846 -1.7295,1.1155 z m 4.0644,-3.2514 c 0,-0.1688 0.6401,-0.8089 1.4225,-1.4226 1.2893,-1.011 1.318,-0.9823 0.3069,0.307 -1.0619,1.354 -1.7294,1.7846 -1.7294,1.1156 z m -733.31287,-10.8701 c -1.01111,-1.2893 -0.98236,-1.318 0.3069,-0.3069 0.78239,0.6136 1.42253,1.2538 1.42253,1.4225 0,0.6691 -0.66752,0.2384 -1.72943,-1.1156 z m 745.50587,1.1156 c 0,-0.1687 0.6402,-0.8089 1.4226,-1.4225 1.2893,-1.0111 1.318,-0.9824 0.3069,0.3069 -1.0619,1.354 -1.7295,1.7847 -1.7295,1.1156 z m -749.57023,-4.3671 c -1.0111,-1.2892 -0.98235,-1.3179 0.30691,-0.3069 0.78239,0.6136 1.42252,1.2538 1.42252,1.4225 0,0.6691 -0.66752,0.2384 -1.72943,-1.1156 z m 753.63463,1.1156 c 0,-0.1687 0.6401,-0.8089 1.4225,-1.4225 1.2893,-1.011 1.318,-0.9823 0.307,0.3069 -1.062,1.354 -1.7295,1.7847 -1.7295,1.1156 z m -757.69898,-4.367 c -1.0111,-1.2893 -0.98235,-1.318 0.30691,-0.307 0.78239,0.6137 1.42252,1.2538 1.42252,1.4225 0,0.6691 -0.66752,0.2385 -1.72943,-1.1155 z m 761.76328,1.1155 c 0,-0.1687 0.6402,-0.8088 1.4226,-1.4225 1.2893,-1.011 1.318,-0.9823 0.3069,0.307 -1.0619,1.354 -1.7295,1.7846 -1.7295,1.1155 z m -766.6405,-5.1799 c -1.01111,-1.2893 -0.98236,-1.318 0.30691,-0.3069 0.78238,0.6136 1.42252,1.2537 1.42252,1.4225 0,0.6691 -0.66752,0.2384 -1.72943,-1.1156 z m 771.5178,1.1156 c 0,-0.1688 0.6401,-0.8089 1.4225,-1.4225 1.2893,-1.0111 1.318,-0.9824 0.3069,0.3069 -1.0619,1.354 -1.7294,1.7847 -1.7294,1.1156 z m -776.39502,-5.1799 c -1.01111,-1.2893 -0.98236,-1.318 0.3069,-0.307 1.35404,1.062 1.78464,1.7295 1.11562,1.7295 -0.16879,0 -0.80893,-0.6402 -1.42252,-1.4225 z m 781.27222,1.1155 c 0,-0.1687 0.6401,-0.8088 1.4225,-1.4225 1.2893,-1.011 1.318,-0.9823 0.307,0.307 -1.062,1.354 -1.7295,1.7846 -1.7295,1.1155 z m -786.14945,-5.1799 c -1.0111,-1.2893 -0.98235,-1.318 0.30691,-0.3069 0.78239,0.6136 1.42252,1.2537 1.42252,1.4225 0,0.6691 -0.66752,0.2384 -1.72943,-1.1156 z m 791.02665,1.1156 c 0,-0.1688 0.6402,-0.8089 1.4225,-1.4225 1.2893,-1.0111 1.318,-0.9824 0.307,0.3069 -1.062,1.354 -1.7295,1.7847 -1.7295,1.1156 z m -796.28385,-5.5864 -1.54851,-1.8289 1.82896,1.5485 c 1.71877,1.4552 2.19901,2.1094 1.54851,2.1094 -0.15425,0 -0.97728,-0.8231 -1.82896,-1.829 z m 802.38035,0.2032 c 0.8093,-0.8941 1.6542,-1.6257 1.8778,-1.6257 0.2235,0 -0.2557,0.7316 -1.0649,1.6257 -0.8092,0.8942 -1.6542,1.6258 -1.8777,1.6258 -0.2236,0 0.2556,-0.7316 1.0648,-1.6258 z m -808.07044,-5.0804 -1.54851,-1.829 1.82896,1.5486 c 1.71876,1.4552 2.19901,2.1094 1.54851,2.1094 -0.15425,0 -0.97728,-0.8231 -1.82896,-1.829 z m 813.76054,0.2032 c 0.8093,-0.8941 1.6542,-1.6257 1.8778,-1.6257 0.2235,0 -0.2557,0.7316 -1.0649,1.6257 -0.8092,0.8942 -1.6542,1.6258 -1.8777,1.6258 -0.2236,0 0.2556,-0.7316 1.0648,-1.6258 z m -819.45063,-5.0804 -1.54851,-1.829 1.82896,1.5485 c 1.71876,1.4552 2.19901,2.1094 1.54851,2.1094 -0.15425,0 -0.97729,-0.823 -1.82896,-1.8289 z m 825.14073,0.2032 c 0.8092,-0.8942 1.6542,-1.6258 1.8778,-1.6258 0.2235,0 -0.2557,0.7316 -1.0649,1.6258 -0.8092,0.8941 -1.6542,1.6257 -1.8777,1.6257 -0.2236,0 0.2556,-0.7316 1.0648,-1.6257 z m -831.6437,-5.8933 -1.54851,-1.829 1.82896,1.5485 c 1.71877,1.4552 2.19901,2.1094 1.54851,2.1094 -0.15425,0 -0.97728,-0.823 -1.82896,-1.8289 z m 838.1467,0.2032 c 0.8092,-0.8942 1.6542,-1.6257 1.8777,-1.6257 0.2236,0 -0.2556,0.7315 -1.0648,1.6257 -0.8092,0.8942 -1.6542,1.6257 -1.8778,1.6257 -0.2235,0 0.2557,-0.7315 1.0649,-1.6257 z m -845.04039,-6.2997 -1.97065,-2.2354 2.23539,1.9706 c 1.22947,1.0839 2.2354,2.0898 2.2354,2.2354 0,0.6375 -0.65827,0.1187 -2.50014,-1.9706 z m 851.94979,0.2032 c 1.05,-1.1177 2.092,-2.0322 2.3155,-2.0322 0.2236,0 -0.4527,0.9145 -1.5026,2.0322 -1.05,1.1177 -2.092,2.0321 -2.3156,2.0321 -0.2235,0 0.4527,-0.9144 1.5027,-2.0321 z m -859.26563,-6.7062 -1.97065,-2.2354 2.2354,1.9706 c 1.22947,1.0839 2.23539,2.0898 2.23539,2.2354 0,0.6376 -0.65826,0.1187 -2.50014,-1.9706 z m 866.58143,0.2032 c 1.05,-1.1177 2.092,-2.0322 2.3156,-2.0322 0.2235,0 -0.4527,0.9145 -1.5027,2.0322 -1.05,1.1177 -2.092,2.0322 -2.3155,2.0322 -0.2236,0 0.4526,-0.9145 1.5026,-2.0322 z m -875.10618,-7.9255 -2.38747,-2.6418 2.64183,2.3875 c 1.453,1.3131 2.64183,2.5019 2.64183,2.6418 0,0.628 -0.67073,0.075 -2.89619,-2.3875 z m 881.60918,2.3875 c 0,-0.1399 1.1888,-1.3287 2.6418,-2.6418 l 2.6419,-2.3875 -2.3875,2.6418 c -2.2255,2.4626 -2.8962,3.0155 -2.8962,2.3875 z m -891.76268,-11.7355 -2.80129,-3.0483 3.04827,2.8014 c 1.67654,1.5407 3.04826,2.9124 3.04826,3.0482 0,0.6207 -0.68787,0.036 -3.29524,-2.8013 z m 904.36218,-0.2032 c 1.7462,-1.7883 3.3579,-3.2515 3.5814,-3.2515 0.2236,0 -1.0223,1.4632 -2.7685,3.2515 -1.7463,1.7883 -3.3579,3.2515 -3.5815,3.2515 -0.2235,0 1.0224,-1.4632 2.7686,-3.2515 z m -918.16499,-12.8027 -4.44302,-4.674 4.67401,4.443 c 2.5707,2.4437 4.674,4.547 4.674,4.674 0,0.6034 -0.77728,-0.1007 -4.90499,-4.443 z m 931.57729,0.2032 c 2.4284,-2.4589 4.5982,-4.4708 4.8218,-4.4708 0.2235,0 -1.5805,2.0119 -4.0089,4.4708 -2.4284,2.4589 -4.5981,4.4708 -4.8217,4.4708 -0.2235,0 1.5805,-2.0119 4.0088,-4.4708 z m -843.05033,1.4225 c -1.0111,-1.2893 -0.98235,-1.318 0.30691,-0.3069 0.78239,0.6136 1.42252,1.2538 1.42252,1.4225 0,0.6691 -0.66752,0.2384 -1.72943,-1.1156 z m 753.63463,1.1156 c 0,-0.1687 0.6401,-0.8089 1.4225,-1.4225 1.2893,-1.0111 1.318,-0.9824 0.307,0.3069 -1.062,1.354 -1.7295,1.7847 -1.7295,1.1156 z m -760.13759,-6.8057 c -1.0111,-1.2893 -0.98235,-1.318 0.30691,-0.3069 1.35404,1.0619 1.78464,1.7295 1.11561,1.7295 -0.16879,0 -0.80892,-0.6402 -1.42252,-1.4226 z m 766.64059,1.1156 c 0,-0.1687 0.6401,-0.8089 1.4225,-1.4225 1.2893,-1.0111 1.318,-0.9824 0.3069,0.3069 -1.0619,1.354 -1.7294,1.7847 -1.7294,1.1156 z m -781.27226,-14.1215 c -1.0111,-1.2893 -0.98235,-1.318 0.30691,-0.3069 1.35404,1.0619 1.78464,1.7294 1.11562,1.7294 -0.1688,0 -0.80893,-0.6401 -1.42253,-1.4225 z m 795.90386,1.1156 c 0,-0.1688 0.6402,-0.8089 1.4226,-1.4225 1.2892,-1.0111 1.3179,-0.9824 0.3069,0.3069 -1.0619,1.354 -1.7295,1.7847 -1.7295,1.1156 z m -891.73018,-11.6829 -10.96246,-11.177 11.17697,10.9625 c 10.38268,10.1834 11.54525,11.3915 10.96246,11.3915 -0.11798,0 -5.14762,-5.0297 -11.17697,-11.177 z m 988.45048,0.4064 c 6.0294,-6.1473 11.059,-11.1769 11.177,-11.1769 0.5828,0 -0.5798,1.208 -10.9625,11.3914 l -11.1769,10.9625 z m -901.94571,1.6258 -1.54851,-1.829 1.82896,1.5485 c 1.71876,1.4552 2.19901,2.1094 1.54851,2.1094 -0.15425,0 -0.97728,-0.823 -1.82896,-1.8289 z m 815.38631,0.2032 c 0.8092,-0.8942 1.6542,-1.6258 1.8777,-1.6258 0.2236,0 -0.2556,0.7316 -1.0648,1.6258 -0.8092,0.8941 -1.6542,1.6257 -1.8778,1.6257 -0.2235,0 0.2557,-0.7316 1.0649,-1.6257 z m -825.95363,-9.9577 -1.54851,-1.8289 1.82896,1.5485 c 1.71877,1.4552 2.19901,2.1094 1.54851,2.1094 -0.15425,0 -0.97728,-0.8231 -1.82896,-1.829 z m 837.33383,-0.6096 c 0.8092,-0.8942 1.6542,-1.6258 1.8777,-1.6258 0.2236,0 -0.2556,0.7316 -1.0648,1.6258 -0.8092,0.8941 -1.6542,1.6257 -1.8778,1.6257 -0.2235,0 0.2557,-0.7316 1.0649,-1.6257 z m -853.56514,-14.8349 -2.38748,-2.6419 2.64183,2.3875 c 1.45301,1.3131 2.64183,2.502 2.64183,2.6419 0,0.628 -0.67072,0.075 -2.89618,-2.3875 z m 869.41614,-0.2032 c 1.5166,-1.5648 2.9404,-2.8451 3.1639,-2.8451 0.2235,0 -0.8344,1.2803 -2.3511,2.8451 -1.5166,1.5647 -2.9404,2.845 -3.1639,2.845 -0.2235,0 0.8344,-1.2803 2.3511,-2.845 z m -956.77635,-5.0805 -4.44302,-4.674 4.67401,4.443 c 2.5707,2.4437 4.674,4.547 4.674,4.674 0,0.6034 -0.77728,-0.1007 -4.90499,-4.443 z m 1043.34705,0.6097 c 2.2017,-2.2354 4.1861,-4.0644 4.4096,-4.0644 0.2236,0 -1.395,1.829 -3.5968,4.0644 -2.2017,2.2354 -4.1861,4.0643 -4.4096,4.0643 -0.2236,0 1.395,-1.8289 3.5968,-4.0643 z m 13.0059,-13.8188 c 1.7462,-1.7883 3.3579,-3.2515 3.5814,-3.2515 0.2236,0 -1.0223,1.4632 -2.7685,3.2515 -1.7462,1.7883 -3.3579,3.2515 -3.5815,3.2515 -0.2235,0 1.0224,-1.4632 2.7686,-3.2515 z m -1069.37487,-0.6097 -2.80129,-3.0482 3.04827,2.8013 c 1.67654,1.5407 3.04826,2.9124 3.04826,3.0482 0,0.6207 -0.68786,0.036 -3.29524,-2.8013 z m -9.35539,-10.1609 -2.38747,-2.6418 2.64183,2.3875 c 2.46256,2.2255 3.01546,2.8962 2.38747,2.8962 -0.13989,0 -1.32872,-1.1889 -2.64183,-2.6419 z m 1086.45256,2.3875 c 0,-0.1399 1.1888,-1.3287 2.6418,-2.6418 l 2.6418,-2.3875 -2.3875,2.6418 c -2.2254,2.4626 -2.8961,3.0155 -2.8961,2.3875 z m -1094.18521,-10.9226 -1.97065,-2.2354 2.23539,1.9707 c 1.22947,1.0838 2.23539,2.0898 2.23539,2.2353 0,0.6376 -0.65826,0.1187 -2.50013,-1.9706 z m 1103.93961,0.2032 c 1.05,-1.1177 2.092,-2.0322 2.3156,-2.0322 0.2235,0 -0.4527,0.9145 -1.5027,2.0322 -1.05,1.1177 -2.092,2.0322 -2.3156,2.0322 -0.2235,0 0.4527,-0.9145 1.5027,-2.0322 z m -75.5969,-4.0643 c 1.5166,-1.5648 2.9404,-2.8451 3.1639,-2.8451 0.2235,0 -0.8344,1.2803 -2.3511,2.8451 -1.5166,1.5647 -2.9404,2.845 -3.1639,2.845 -0.2235,0 0.8344,-1.2803 2.3511,-2.845 z m -953.14181,-0.6097 -2.38747,-2.6418 2.64183,2.3875 c 1.453,1.3131 2.64183,2.5019 2.64183,2.6418 0,0.628 -0.67073,0.075 -2.89619,-2.3875 z m -81.70387,-2.845 -1.97065,-2.2354 2.2354,1.9706 c 1.22946,1.0839 2.23539,2.0898 2.23539,2.2354 0,0.6375 -0.65826,0.1187 -2.50014,-1.9706 z m 1116.94558,0.2032 c 1.05,-1.1177 2.092,-2.0322 2.3155,-2.0322 0.2236,0 -0.4527,0.9145 -1.5026,2.0322 -1.05,1.1177 -2.0921,2.0322 -2.3156,2.0322 -0.2235,0 0.4527,-0.9145 1.5027,-2.0322 z m -1123.44854,-7.5191 -1.97065,-2.2354 2.23539,1.9707 c 1.22947,1.0839 2.2354,2.0898 2.2354,2.2354 0,0.6375 -0.65827,0.1187 -2.50014,-1.9707 z m 1129.54504,0.6097 c 0.8092,-0.8942 1.6542,-1.6258 1.8777,-1.6258 0.2236,0 -0.2556,0.7316 -1.0648,1.6258 -0.8092,0.8941 -1.6542,1.6257 -1.8777,1.6257 -0.2236,0 0.2556,-0.7316 1.0648,-1.6257 z m -72.7519,-6.0965 c 1.05,-1.1177 2.092,-2.0322 2.3155,-2.0322 0.2236,0 -0.4526,0.9145 -1.5026,2.0322 -1.05,1.1177 -2.092,2.0321 -2.3156,2.0321 -0.2235,0 0.4527,-0.9144 1.5027,-2.0321 z m -1062.09251,-0.6097 -1.54851,-1.829 1.82896,1.5486 c 1.71877,1.4552 2.19901,2.1094 1.54851,2.1094 -0.15425,0 -0.97728,-0.8231 -1.82896,-1.829 z m 78.03557,0 -1.54851,-1.829 1.82896,1.5486 c 1.71876,1.4552 2.19901,2.1094 1.54851,2.1094 -0.15425,0 -0.97728,-0.8231 -1.82896,-1.829 z m 1062.49894,0.2032 c 0.8092,-0.8941 1.6542,-1.6257 1.8777,-1.6257 0.2236,0 -0.2556,0.7316 -1.0648,1.6257 -0.8092,0.8942 -1.6542,1.6258 -1.8778,1.6258 -0.2235,0 0.2557,-0.7316 1.0649,-1.6258 z m -1145.84462,-6.2997 c -1.01111,-1.2893 -0.98236,-1.318 0.30691,-0.307 0.78238,0.6137 1.42252,1.2538 1.42252,1.4226 0,0.669 -0.66752,0.2384 -1.72943,-1.1156 z m 1150.31542,1.1156 c 0,-0.1688 0.6401,-0.8089 1.4225,-1.4226 1.2893,-1.011 1.318,-0.9823 0.307,0.307 -1.062,1.354 -1.7295,1.7846 -1.7295,1.1156 z m -72.7519,-5.3832 c 0.8092,-0.8941 1.6542,-1.6257 1.8777,-1.6257 0.2236,0 -0.2556,0.7316 -1.0648,1.6257 -0.8093,0.8942 -1.6542,1.6257 -1.8778,1.6257 -0.2235,0 0.2557,-0.7315 1.0649,-1.6257 z m -1004.40518,-0.6096 c -1.0111,-1.2893 -0.98235,-1.318 0.30691,-0.307 0.78239,0.6137 1.42252,1.2538 1.42252,1.4225 0,0.6691 -0.66752,0.2385 -1.72943,-1.1155 z m -78.03556,-0.8129 c -1.01111,-1.2893 -0.98236,-1.318 0.3069,-0.307 0.78239,0.6137 1.42253,1.2538 1.42253,1.4226 0,0.669 -0.66753,0.2384 -1.72943,-1.1156 z m 1160.06984,1.1156 c 0,-0.1688 0.6401,-0.8089 1.4225,-1.4226 1.2893,-1.011 1.318,-0.9823 0.307,0.307 -1.062,1.354 -1.7295,1.7846 -1.7295,1.1156 z m -1164.51417,-6.3993 -1.54851,-1.8289 1.82895,1.5485 c 1.71877,1.4552 2.19901,2.1094 1.54851,2.1094 -0.15425,0 -0.97728,-0.823 -1.82895,-1.829 z m 1169.79787,0.2032 c 0.8092,-0.8941 1.6542,-1.6257 1.8777,-1.6257 0.2235,0 -0.2556,0.7316 -1.0649,1.6257 -0.8092,0.8942 -1.6541,1.6258 -1.8777,1.6258 -0.2235,0 0.2557,-0.7316 1.0649,-1.6258 z m -1095.44668,-3.0482 c -1.01111,-1.2893 -0.98236,-1.318 0.3069,-0.307 0.78239,0.6137 1.42253,1.2538 1.42253,1.4226 0,0.669 -0.66752,0.2384 -1.72943,-1.1156 z m 1020.25618,1.1156 c 0,-0.1688 0.6401,-0.8089 1.4225,-1.4226 1.2893,-1.011 1.318,-0.9823 0.3069,0.307 -1.0619,1.354 -1.7294,1.7846 -1.7294,1.1156 z m -1099.10462,-3.5542 c -1.01111,-1.2893 -0.98235,-1.318 0.30691,-0.307 0.78238,0.6137 1.42252,1.2538 1.42252,1.4226 0,0.669 -0.66752,0.2384 -1.72943,-1.1156 z m 1177.95302,1.1156 c 0,-0.1688 0.6401,-0.8089 1.4225,-1.4226 1.2893,-1.011 1.318,-0.9823 0.307,0.307 -1.062,1.354 -1.7295,1.7846 -1.7295,1.1156 z m -1182.01737,-5.9929 c -1.01111,-1.2892 -0.98236,-1.3179 0.3069,-0.3069 0.78239,0.6136 1.42253,1.2538 1.42253,1.4225 0,0.6691 -0.66752,0.2384 -1.72943,-1.1156 z m 1186.08167,1.1156 c 0,-0.1687 0.6402,-0.8089 1.4226,-1.4225 1.2893,-1.011 1.318,-0.9823 0.3069,0.3069 -1.0619,1.354 -1.7295,1.7847 -1.7295,1.1156 z m 4.4708,-5.3831 c 0.8092,-0.8942 1.6542,-1.6258 1.8778,-1.6258 0.2235,0 -0.2557,0.7316 -1.0649,1.6258 -0.8092,0.8941 -1.6542,1.6257 -1.8777,1.6257 -0.2236,0 0.2556,-0.7316 1.0648,-1.6257 z m -1194.61682,-0.6097 c -1.01111,-1.2893 -0.98236,-1.318 0.3069,-0.3069 0.78239,0.6136 1.42253,1.2538 1.42253,1.4225 0,0.6691 -0.66753,0.2384 -1.72943,-1.1156 z m -3.25149,-4.0643 c -1.0111,-1.2893 -0.98235,-1.318 0.30691,-0.307 0.78239,0.6137 1.42252,1.2538 1.42252,1.4226 0,0.669 -0.66752,0.2384 -1.72943,-1.1156 z m 1200.71341,1.1156 c 0,-0.1688 0.6401,-0.8089 1.4225,-1.4226 1.2893,-1.011 1.318,-0.9823 0.3069,0.307 -1.0619,1.354 -1.7294,1.7846 -1.7294,1.1156 z m -1204.77776,-5.9929 c -1.0111,-1.2892 -0.98235,-1.3179 0.30691,-0.3069 1.35404,1.0619 1.78464,1.7295 1.11561,1.7295 -0.16879,0 -0.80892,-0.6402 -1.42252,-1.4226 z m -3.25148,-4.0643 c -1.01111,-1.2893 -0.98236,-1.318 0.30691,-0.3069 0.78238,0.6136 1.42252,1.2537 1.42252,1.4225 0,0.6691 -0.66752,0.2384 -1.72943,-1.1156 z m 1215.34504,1.1156 c 0,-0.1688 0.6401,-0.8089 1.4225,-1.4225 1.2893,-1.0111 1.318,-0.9824 0.307,0.3069 -1.062,1.354 -1.7295,1.7847 -1.7295,1.1156 z m -1218.59652,-5.18 c -1.01111,-1.2893 -0.98236,-1.3179 0.3069,-0.3069 0.78239,0.6136 1.42253,1.2538 1.42253,1.4225 0,0.6691 -0.66752,0.2384 -1.72943,-1.1156 z m 1221.84802,1.1156 c 0,-0.1687 0.6401,-0.8089 1.4225,-1.4225 1.2893,-1.011 1.318,-0.9824 0.307,0.3069 -1.062,1.354 -1.7295,1.7847 -1.7295,1.1156 z m -1225.0995,-5.1799 c -1.01111,-1.2893 -0.98236,-1.318 0.3069,-0.3069 0.78239,0.6136 1.42253,1.2537 1.42253,1.4225 0,0.669 -0.66753,0.2384 -1.72943,-1.1156 z m 1228.351,1.1156 c 0,-0.1688 0.6401,-0.8089 1.4225,-1.4225 1.2893,-1.0111 1.318,-0.9824 0.3069,0.3069 -1.0619,1.354 -1.7294,1.7846 -1.7294,1.1156 z M 357.55932,1752.7519 c -1.01111,-1.2893 -0.98235,-1.318 0.30691,-0.3069 0.78238,0.6136 1.42252,1.2537 1.42252,1.4225 0,0.6691 -0.66752,0.2384 -1.72943,-1.1156 z m 1246.23408,1.1156 c 0,-0.1688 0.6402,-0.8089 1.4226,-1.4225 1.2893,-1.0111 1.318,-0.9824 0.3069,0.3069 -1.0619,1.354 -1.7295,1.7847 -1.7295,1.1156 z m -1251.92417,-8.4314 c -1.01111,-1.2893 -0.98236,-1.318 0.3069,-0.307 1.35404,1.062 1.78464,1.7295 1.11562,1.7295 -0.16879,0 -0.80893,-0.6401 -1.42252,-1.4225 z m 1257.61427,1.1156 c 0,-0.1688 0.6402,-0.8089 1.4226,-1.4226 1.2893,-1.011 1.318,-0.9823 0.3069,0.307 -1.0619,1.354 -1.7295,1.7846 -1.7295,1.1156 z M 341.30191,1731.6173 c -1.0111,-1.2893 -0.98235,-1.318 0.30691,-0.307 0.78239,0.6137 1.42252,1.2538 1.42252,1.4226 0,0.669 -0.66752,0.2384 -1.72943,-1.1156 z m -2.43861,-3.2515 c -1.01111,-1.2893 -0.98236,-1.318 0.30691,-0.3069 0.78238,0.6136 1.42252,1.2537 1.42252,1.4225 0,0.669 -0.66752,0.2384 -1.72943,-1.1156 z m 1283.6262,1.1156 c 0,-0.1688 0.6401,-0.8089 1.4225,-1.4225 1.2893,-1.0111 1.318,-0.9824 0.3069,0.3069 -1.0619,1.354 -1.7294,1.7846 -1.7294,1.1156 z m -1286.06481,-4.3671 c -1.01111,-1.2893 -0.98236,-1.318 0.3069,-0.3069 0.78239,0.6136 1.42253,1.2537 1.42253,1.4225 0,0.6691 -0.66752,0.2384 -1.72943,-1.1156 z m -11.38019,-15.4445 c -1.0111,-1.2893 -0.98235,-1.318 0.30691,-0.307 0.78239,0.6137 1.42252,1.2538 1.42252,1.4226 0,0.669 -0.66752,0.2384 -1.72943,-1.1156 z m 1311.2638,1.1156 c 0,-0.1688 0.6401,-0.8089 1.4225,-1.4226 1.2893,-1.011 1.318,-0.9823 0.3069,0.307 -1.0619,1.354 -1.7294,1.7846 -1.7294,1.1156 z M 48.836402,1109.094 c 0.039,-0.947 0.23162,-1.1395 0.49111,-0.4911 0.234814,0.5868 0.205936,1.2879 -0.06418,1.558 -0.270111,0.2701 -0.462232,-0.21 -0.426936,-1.0669 z m -5.690093,-24.3861 c 0.039,-0.947 0.23162,-1.1396 0.491109,-0.4911 0.234815,0.5868 0.205936,1.2879 -0.06418,1.558 -0.27011,0.2701 -0.462231,-0.2101 -0.426936,-1.0669 z m 1876.104991,0 c 0.039,-0.947 0.2317,-1.1396 0.4912,-0.4911 0.2348,0.5868 0.2059,1.2879 -0.064,1.558 -0.2701,0.2701 -0.4622,-0.2101 -0.427,-1.0669 z M 41.520568,1077.3921 c 0.039,-0.947 0.23162,-1.1396 0.491109,-0.4912 0.234815,0.5868 0.205936,1.2879 -0.06418,1.5581 -0.27011,0.2701 -0.462231,-0.2101 -0.426935,-1.0669 z m 1879.356532,0 c 0.039,-0.947 0.2316,-1.1396 0.4911,-0.4912 0.2348,0.5868 0.206,1.2879 -0.064,1.5581 -0.2701,0.2701 -0.4623,-0.2101 -0.427,-1.0669 z M 39.894827,1070.0762 c 0.039,-0.947 0.23162,-1.1395 0.49111,-0.4911 0.234814,0.5868 0.205935,1.2879 -0.06418,1.558 -0.27011,0.2701 -0.462231,-0.21 -0.426935,-1.0669 z m 1882.607973,0 c 0.039,-0.947 0.2317,-1.1395 0.4911,-0.4911 0.2349,0.5868 0.206,1.2879 -0.064,1.558 -0.2701,0.2701 -0.4622,-0.21 -0.427,-1.0669 z M 37.456216,1058.696 c 0.039,-0.9469 0.23162,-1.1395 0.491109,-0.4911 0.234815,0.5868 0.205936,1.2879 -0.06418,1.558 -0.27011,0.2702 -0.462231,-0.21 -0.426936,-1.0669 z m 1887.485184,0 c 0.039,-0.9469 0.2317,-1.1395 0.4912,-0.4911 0.2348,0.5868 0.2059,1.2879 -0.064,1.558 -0.2701,0.2702 -0.4622,-0.21 -0.427,-1.0669 z M 36.643345,1054.6317 c 0.039,-0.947 0.23162,-1.1396 0.49111,-0.4911 0.234814,0.5868 0.205935,1.2879 -0.06418,1.558 -0.270111,0.2701 -0.462232,-0.2101 -0.426936,-1.0669 z m 1889.110955,0 c 0.039,-0.947 0.2317,-1.1396 0.4911,-0.4911 0.2349,0.5868 0.206,1.2879 -0.064,1.558 -0.2701,0.2701 -0.4623,-0.2101 -0.427,-1.0669 z M 31.766122,1030.2456 c 0.039,-0.947 0.23162,-1.1396 0.49111,-0.4912 0.234814,0.5869 0.205936,1.288 -0.06418,1.5581 -0.270111,0.2701 -0.462232,-0.2101 -0.426936,-1.0669 z m 1898.865378,0 c 0.039,-0.947 0.2317,-1.1396 0.4912,-0.4912 0.2348,0.5869 0.2059,1.288 -0.064,1.5581 -0.2701,0.2701 -0.4622,-0.2101 -0.427,-1.0669 z M 30.953252,1026.1812 c 0.039,-0.947 0.23162,-1.1395 0.491109,-0.4911 0.234815,0.5868 0.205936,1.2879 -0.06418,1.558 -0.27011,0.2701 -0.462231,-0.21 -0.426936,-1.0669 z m 1900.491148,0 c 0.039,-0.947 0.2317,-1.1395 0.4911,-0.4911 0.2349,0.5868 0.206,1.2879 -0.064,1.558 -0.2701,0.2701 -0.4623,-0.21 -0.427,-1.0669 z M 30.140381,1022.1169 c 0.039,-0.947 0.23162,-1.1396 0.49111,-0.4912 0.234815,0.5869 0.205936,1.288 -0.06418,1.5581 -0.270111,0.2701 -0.462232,-0.2101 -0.426936,-1.0669 z m 1902.116919,0 c 0.039,-0.947 0.2316,-1.1396 0.4911,-0.4912 0.2348,0.5869 0.206,1.288 -0.064,1.5581 -0.2701,0.2701 -0.4623,-0.2101 -0.427,-1.0669 z m 0.8128,-4.8772 c 0.039,-0.947 0.2317,-1.1396 0.4912,-0.4912 0.2348,0.5868 0.2059,1.2879 -0.064,1.558 -0.2701,0.2702 -0.4622,-0.21 -0.427,-1.0668 z M 28.51464,1013.1753 c 0.039,-0.947 0.23162,-1.1396 0.49111,-0.4911 0.234815,0.5868 0.205936,1.2879 -0.06418,1.558 -0.270111,0.2701 -0.462232,-0.2101 -0.426936,-1.0669 z m 1905.36836,0 c 0.039,-0.947 0.2317,-1.1396 0.4911,-0.4911 0.2349,0.5868 0.206,1.2879 -0.064,1.558 -0.2701,0.2701 -0.4623,-0.2101 -0.427,-1.0669 z M 26.888899,1004.2337 c 0.039,-0.947 0.231621,-1.1395 0.49111,-0.4911 0.234815,0.5868 0.205936,1.2879 -0.06418,1.558 -0.270111,0.2701 -0.462232,-0.21 -0.426936,-1.0669 z m 1908.619801,0 c 0.039,-0.947 0.2317,-1.1395 0.4912,-0.4911 0.2348,0.5868 0.206,1.2879 -0.064,1.558 -0.2702,0.2701 -0.4623,-0.21 -0.427,-1.0669 z M 26.076029,999.3565 c 0.039,-0.94699 0.23162,-1.13956 0.491109,-0.49113 0.234815,0.58681 0.205936,1.28793 -0.06418,1.55803 -0.27011,0.2701 -0.462231,-0.21 -0.426936,-1.0669 z m 1910.245571,0 c 0.039,-0.94699 0.2317,-1.13956 0.4911,-0.49113 0.2349,0.58681 0.206,1.28793 -0.064,1.55803 -0.2701,0.2701 -0.4623,-0.21 -0.427,-1.0669 z M 25.263158,994.47928 c 0.039,-0.94699 0.231621,-1.13956 0.49111,-0.49113 0.234815,0.58681 0.205936,1.28791 -0.06418,1.55802 -0.270111,0.27012 -0.462232,-0.21004 -0.426936,-1.06689 z m 1911.871342,0 c 0.039,-0.94699 0.2316,-1.13956 0.4911,-0.49113 0.2349,0.58681 0.206,1.28791 -0.064,1.55802 -0.2701,0.27012 -0.4623,-0.21004 -0.427,-1.06689 z m 0.8129,-4.87722 c 0.039,-0.94699 0.2316,-1.13956 0.4911,-0.49114 0.2348,0.58681 0.206,1.28791 -0.064,1.55803 -0.2701,0.27012 -0.4623,-0.21004 -0.427,-1.06689 z M 23.637417,985.53771 c 0.039,-0.947 0.231621,-1.13957 0.49111,-0.49114 0.234815,0.58681 0.205936,1.28791 -0.06418,1.55803 -0.27011,0.27012 -0.462232,-0.21005 -0.426936,-1.06689 z M 1938.7602,984.72484 c 0.039,-0.947 0.2317,-1.13957 0.4912,-0.49114 0.2348,0.58681 0.2059,1.28791 -0.064,1.55803 -0.2701,0.27012 -0.4622,-0.21005 -0.427,-1.06689 z M 22.824547,979.84761 c 0.039,-0.94699 0.23162,-1.13956 0.49111,-0.49113 0.234814,0.58681 0.205935,1.28791 -0.06418,1.55803 -0.27011,0.27011 -0.462231,-0.21005 -0.426935,-1.0669 z m 1916.748553,0 c 0.039,-0.94699 0.2317,-1.13956 0.4911,-0.49113 0.2349,0.58681 0.206,1.28791 -0.064,1.55803 -0.2701,0.27011 -0.4623,-0.21005 -0.427,-1.0669 z M 22.011677,974.97039 c 0.039,-0.94699 0.23162,-1.13956 0.491109,-0.49114 0.234815,0.58682 0.205936,1.28792 -0.06418,1.55803 -0.27011,0.27012 -0.462232,-0.21004 -0.426936,-1.06689 z m 1918.374323,0 c 0.039,-0.94699 0.2316,-1.13956 0.4911,-0.49114 0.2348,0.58682 0.206,1.28792 -0.064,1.55803 -0.2701,0.27012 -0.4623,-0.21004 -0.427,-1.06689 z M 21.198806,970.09317 c 0.039,-0.947 0.23162,-1.13956 0.49111,-0.49114 0.234814,0.58681 0.205935,1.28791 -0.06418,1.55803 -0.27011,0.27012 -0.462231,-0.21004 -0.426935,-1.06689 z m 1919.999994,0 c 0.039,-0.947 0.2317,-1.13956 0.4912,-0.49114 0.2348,0.58681 0.206,1.28791 -0.064,1.55803 -0.2702,0.27012 -0.4623,-0.21004 -0.427,-1.06689 z M 20.45011,964.87722 c 0,-1.11769 0.1845,-1.57493 0.410001,-1.01609 0.2255,0.55885 0.2255,1.47333 0,2.03218 -0.225501,0.55885 -0.410001,0.10161 -0.410001,-1.01609 z m 1921.62579,0 c 0,-1.11769 0.1845,-1.57493 0.41,-1.01609 0.2255,0.55885 0.2255,1.47333 0,2.03218 -0.2255,0.55885 -0.41,0.10161 -0.41,-1.01609 z M 19.573065,959.52585 c 0.039,-0.94699 0.23162,-1.13956 0.49111,-0.49113 0.234814,0.58681 0.205935,1.28791 -0.06418,1.55803 -0.270111,0.27011 -0.462232,-0.21005 -0.426936,-1.0669 z m 1923.251535,0 c 0.039,-0.94699 0.2316,-1.13956 0.4911,-0.49113 0.2348,0.58681 0.206,1.28791 -0.064,1.55803 -0.2701,0.27011 -0.4623,-0.21005 -0.427,-1.0669 z M 18.760195,953.83576 c 0.039,-0.94699 0.23162,-1.13956 0.491109,-0.49114 0.234815,0.58681 0.205936,1.28792 -0.06418,1.55803 -0.27011,0.27012 -0.462231,-0.21004 -0.426936,-1.06689 z m 1924.877205,0 c 0.039,-0.94699 0.2317,-1.13956 0.4912,-0.49114 0.2348,0.58681 0.206,1.28792 -0.064,1.55803 -0.2702,0.27012 -0.4623,-0.21004 -0.427,-1.06689 z M 18.011499,948.61981 c 0,-1.11769 0.184499,-1.57493 0.41,-1.01608 0.2255,0.55884 0.2255,1.47332 0,2.03217 -0.225501,0.55885 -0.41,0.10161 -0.41,-1.01609 z m 1926.503001,0 c 0,-1.11769 0.1846,-1.57493 0.41,-1.01608 0.2255,0.55884 0.2255,1.47332 0,2.03217 -0.2254,0.55885 -0.41,0.10161 -0.41,-1.01609 z M 17.198628,942.92972 c 0,-1.1177 0.1845,-1.57494 0.410001,-1.01609 0.2255,0.55885 0.2255,1.47333 0,2.03218 -0.225501,0.55885 -0.410001,0.10161 -0.410001,-1.01609 z m 1928.128772,0 c 0,-1.1177 0.1845,-1.57494 0.41,-1.01609 0.2255,0.55885 0.2255,1.47333 0,2.03218 -0.2255,0.55885 -0.41,0.10161 -0.41,-1.01609 z M 16.385758,937.23963 c 0,-1.1177 0.184499,-1.57494 0.41,-1.01609 0.2255,0.55885 0.2255,1.47333 0,2.03218 -0.225501,0.55884 -0.41,0.1016 -0.41,-1.01609 z m 1929.754542,0 c 0,-1.1177 0.1845,-1.57494 0.41,-1.01609 0.2255,0.55885 0.2255,1.47333 0,2.03218 -0.2255,0.55884 -0.41,0.1016 -0.41,-1.01609 z M 15.508713,931.07539 c 0.039,-0.947 0.23162,-1.13957 0.491109,-0.49114 0.234815,0.58681 0.205936,1.28791 -0.06418,1.55803 -0.27011,0.27012 -0.462231,-0.21005 -0.426936,-1.06689 z m 1931.380187,0 c 0.039,-0.947 0.2317,-1.13957 0.4912,-0.49114 0.2348,0.58681 0.2059,1.28791 -0.064,1.55803 -0.2701,0.27012 -0.4622,-0.21005 -0.427,-1.06689 z M 14.760017,925.04657 c 0,-1.1177 0.184499,-1.57494 0.41,-1.01609 0.2255,0.55885 0.2255,1.47333 0,2.03218 -0.225501,0.55885 -0.41,0.10161 -0.41,-1.01609 z m 1933.005983,0 c 0,-1.1177 0.1845,-1.57494 0.41,-1.01609 0.2255,0.55885 0.2255,1.47333 0,2.03218 -0.2255,0.55885 -0.41,0.10161 -0.41,-1.01609 z M 13.947146,918.54361 c 0,-1.1177 0.1845,-1.57494 0.410001,-1.01609 0.2255,0.55885 0.2255,1.47333 0,2.03218 -0.225501,0.55884 -0.410001,0.1016 -0.410001,-1.01609 z m 1934.631754,0 c 0,-1.1177 0.1845,-1.57494 0.41,-1.01609 0.2255,0.55885 0.2255,1.47333 0,2.03218 -0.2255,0.55884 -0.41,0.1016 -0.41,-1.01609 z M 13.134276,912.04064 c 0,-1.11769 0.184499,-1.57493 0.41,-1.01608 0.2255,0.55884 0.2255,1.47332 0,2.03217 -0.225501,0.55885 -0.41,0.10161 -0.41,-1.01609 z m 1936.257524,0 c 0,-1.11769 0.1845,-1.57493 0.41,-1.01608 0.2255,0.55884 0.2255,1.47332 0,2.03217 -0.2255,0.55885 -0.41,0.10161 -0.41,-1.01609 z M 12.321405,905.53768 c 0,-1.1177 0.1845,-1.57494 0.410001,-1.01609 0.2255,0.55885 0.2255,1.47333 0,2.03218 -0.225501,0.55885 -0.410001,0.10161 -0.410001,-1.01609 z m 1937.883195,0 c 0,-1.1177 0.1845,-1.57494 0.41,-1.01609 0.2255,0.55885 0.2255,1.47333 0,2.03218 -0.2255,0.55885 -0.41,0.10161 -0.41,-1.01609 z M 11.538655,898.62828 c 0.01657,-1.34124 0.198745,-1.79148 0.404844,-1.00064 0.206097,0.79092 0.192543,1.8883 -0.03012,2.43861 -0.222664,0.55039 -0.39129,-0.0967 -0.374724,-1.43797 z M 1951.0175,898.22185 c 0,-1.1177 0.1845,-1.57494 0.41,-1.01609 0.2255,0.55885 0.2255,1.47333 0,2.03217 -0.2255,0.55885 -0.41,0.10161 -0.41,-1.01608 z M 62.6552,892.87048 c 0.039,-0.947 0.23162,-1.13957 0.49111,-0.49114 0.234815,0.58681 0.205936,1.28791 -0.06418,1.55803 -0.270111,0.27012 -0.462232,-0.21005 -0.426936,-1.06689 z m -51.929416,-1.55803 c 0.01657,-1.34124 0.198746,-1.79149 0.404844,-1.00065 0.206098,0.79093 0.192544,1.8883 -0.03012,2.43861 -0.222664,0.5504 -0.39129,-0.0967 -0.374723,-1.43796 z m 1941.134616,0 c 0.016,-1.34124 0.1988,-1.79149 0.4049,-1.00065 0.2061,0.79093 0.1926,1.8883 -0.03,2.43861 -0.2227,0.5504 -0.3913,-0.0967 -0.3748,-1.43796 z M 9.912914,883.99661 c 0.016566,-1.34123 0.198745,-1.79148 0.404844,-1.00064 0.206097,0.79092 0.192543,1.8883 -0.03012,2.43861 -0.222664,0.5504 -0.39129,-0.0967 -0.374724,-1.43797 z m 1942.760386,0 c 0.016,-1.34123 0.1988,-1.79148 0.4049,-1.00064 0.2061,0.79092 0.1926,1.8883 -0.03,2.43861 -0.2226,0.5504 -0.3912,-0.0967 -0.3747,-1.43797 z M 61.029459,879.05168 c 0.039,-0.947 0.231621,-1.13956 0.49111,-0.49114 0.234815,0.58681 0.205936,1.28791 -0.06418,1.55803 -0.270111,0.27012 -0.462232,-0.21005 -0.426936,-1.06689 z m 1840.338741,0 c 0.039,-0.947 0.2316,-1.13956 0.4911,-0.49114 0.2349,0.58681 0.206,1.28791 -0.064,1.55803 -0.2701,0.27012 -0.4623,-0.21005 -0.427,-1.06689 z M 9.1000435,875.86791 c 0.016566,-1.34124 0.1987452,-1.79149 0.4048437,-1.00065 0.2060976,0.79093 0.1925438,1.8883 -0.030117,2.43862 -0.2226639,0.55039 -0.3912898,-0.0967 -0.3747235,-1.43797 z m 1944.3861565,0 c 0.016,-1.34124 0.1987,-1.79149 0.4049,-1.00065 0.206,0.79093 0.1925,1.8883 -0.03,2.43862 -0.2226,0.55039 -0.3912,-0.0967 -0.3747,-1.43797 z M 60.216589,871.73584 c 0.039,-0.94699 0.23162,-1.13956 0.491109,-0.49113 0.234815,0.58681 0.205936,1.28791 -0.06418,1.55803 -0.27011,0.27011 -0.462231,-0.21005 -0.426936,-1.0669 z m 1841.964411,0 c 0.039,-0.94699 0.2317,-1.13956 0.4912,-0.49113 0.2348,0.58681 0.206,1.28791 -0.064,1.55803 -0.2701,0.27011 -0.4623,-0.21005 -0.427,-1.0669 z M 8.287173,867.7392 c 0.016566,-1.34123 0.1987453,-1.79148 0.4048437,-1.00064 0.2060976,0.79092 0.1925438,1.8883 -0.030117,2.43861 -0.2226639,0.5504 -0.3912898,-0.0967 -0.3747235,-1.43797 z m 1946.011927,0 c 0.016,-1.34123 0.1987,-1.79148 0.4048,-1.00064 0.2061,0.79092 0.1926,1.8883 -0.03,2.43861 -0.2227,0.5504 -0.3913,-0.0967 -0.3748,-1.43797 z M 7.4743023,859.6105 c 0.016566,-1.34124 0.1987457,-1.79149 0.4048437,-1.00064 0.2060979,0.79092 0.1925439,1.88829 -0.03012,2.43861 -0.222664,0.55039 -0.3912896,-0.0967 -0.3747237,-1.43797 z m 1947.6375977,0 c 0.016,-1.34124 0.1988,-1.79149 0.4049,-1.00064 0.2061,0.79092 0.1926,1.88829 -0.03,2.43861 -0.2226,0.55039 -0.3912,-0.0967 -0.3747,-1.43797 z M 6.6614319,850.66892 c 0.016566,-1.34123 0.1987456,-1.79148 0.4048436,-1.00064 0.2060979,0.79092 0.1925439,1.8883 -0.03012,2.43861 -0.222664,0.5504 -0.3912896,-0.0967 -0.3747236,-1.43797 z m 1949.2633681,0 c 0.016,-1.34123 0.1987,-1.79148 0.4049,-1.00064 0.206,0.79092 0.1926,1.8883 -0.03,2.43861 -0.2226,0.5504 -0.3912,-0.0967 -0.3747,-1.43797 z M 57.777977,847.34973 c 0.039,-0.94699 0.231621,-1.13956 0.49111,-0.49114 0.234815,0.58682 0.205936,1.28792 -0.06418,1.55803 -0.27011,0.27012 -0.462232,-0.21004 -0.426936,-1.06689 z m 1846.841723,0 c 0.039,-0.94699 0.2316,-1.13956 0.4911,-0.49114 0.2348,0.58682 0.206,1.28792 -0.064,1.55803 -0.2701,0.27012 -0.4623,-0.21004 -0.427,-1.06689 z M 5.8786815,841.32091 c 0,-1.56477 0.1672849,-2.20491 0.3717442,-1.42252 0.2044593,0.78239 0.2044593,2.06266 0,2.84505 -0.2044593,0.78239 -0.3717442,0.14225 -0.3717442,-1.42253 z m 1950.8891185,0 c 0,-1.56477 0.1673,-2.20491 0.3717,-1.42252 0.2046,0.78239 0.2046,2.06266 0,2.84505 -0.2044,0.78239 -0.3717,0.14225 -0.3717,-1.42253 z M 56.965107,838.40816 c 0.039,-0.947 0.23162,-1.13957 0.49111,-0.49114 0.234814,0.58681 0.205935,1.28791 -0.06418,1.55803 -0.27011,0.27012 -0.462231,-0.21005 -0.426935,-1.06689 z m 1848.467393,0 c 0.039,-0.947 0.2317,-1.13957 0.4912,-0.49114 0.2348,0.58681 0.2059,1.28791 -0.064,1.55803 -0.2702,0.27012 -0.4623,-0.21005 -0.427,-1.06689 z M 5.065811,830.7536 c 0,-1.56478 0.1672849,-2.20491 0.3717442,-1.42252 0.2044594,0.78238 0.2044594,2.06265 0,2.84504 -0.2044593,0.78239 -0.3717442,0.14225 -0.3717442,-1.42252 z m 1952.514889,0 c 0,-1.56478 0.1673,-2.20491 0.3717,-1.42252 0.2045,0.78238 0.2045,2.06265 0,2.84504 -0.2044,0.78239 -0.3717,0.14225 -0.3717,-1.42252 z M 56.152237,828.65371 c 0.039,-0.94699 0.23162,-1.13956 0.491109,-0.49114 0.234815,0.58682 0.205936,1.28792 -0.06418,1.55803 -0.27011,0.27012 -0.462232,-0.21004 -0.426936,-1.06689 z m 1850.093163,0 c 0.039,-0.94699 0.2317,-1.13956 0.4911,-0.49114 0.2349,0.58682 0.206,1.28792 -0.064,1.55803 -0.2701,0.27012 -0.4623,-0.21004 -0.427,-1.06689 z M 4.2693448,819.77985 c 0.00902,-1.78832 0.1754859,-2.42423 0.3699191,-1.41302 0.1944331,1.01113 0.1870512,2.4743 -0.016405,3.25149 -0.2034554,0.7771 -0.3625371,-0.0504 -0.3535141,-1.83847 z m 1954.1406552,0 c 0.01,-1.78832 0.1755,-2.42423 0.3699,-1.41302 0.1945,1.01113 0.1871,2.4743 -0.016,3.25149 -0.2035,0.7771 -0.3626,-0.0504 -0.3536,-1.83847 z M 55.403541,818.56054 c 0,-1.11769 0.184499,-1.57493 0.41,-1.01609 0.2255,0.55885 0.2255,1.47333 0,2.03218 -0.225501,0.55885 -0.41,0.10161 -0.41,-1.01609 z m 1851.718959,0 c 0,-1.11769 0.1845,-1.57493 0.41,-1.01609 0.2255,0.55885 0.2255,1.47333 0,2.03218 -0.2255,0.55885 -0.41,0.10161 -0.41,-1.01609 z M 3.4728786,807.99323 c 0,-2.01186 0.1585228,-2.83489 0.3522728,-1.82896 0.1937501,1.00592 0.1937501,2.65199 0,3.65791 -0.19375,1.00593 -0.3522728,0.1829 -0.3522728,-1.82895 z m 1955.7664214,0 c 0,-2.01186 0.1585,-2.83489 0.3522,-1.82896 0.1938,1.00592 0.1938,2.65199 0,3.65791 -0.1937,1.00593 -0.3522,0.1829 -0.3522,-1.82895 z M 54.59067,807.18036 c 0,-1.1177 0.1845,-1.57494 0.410001,-1.01609 0.2255,0.55885 0.2255,1.47333 0,2.03217 -0.225501,0.55885 -0.410001,0.10161 -0.410001,-1.01608 z m 1853.28043,0.33869 c 0.039,-0.94695 0.2317,-1.13956 0.4912,-0.49111 0.2348,0.58679 0.206,1.2879 -0.064,1.55801 -0.2702,0.27011 -0.4623,-0.21 -0.427,-1.0669 z M 2.6711038,794.58086 c 0.0061,-2.23539 0.1639664,-3.05339 0.3508082,-1.81778 0.1868419,1.23561 0.1818488,3.06457 -0.011096,4.06435 -0.1929445,0.99979 -0.3458151,-0.0112 -0.3397122,-2.24657 z M 1960.0521,794.17443 c 0,-2.01186 0.1586,-2.83489 0.3523,-1.82896 0.1937,1.00593 0.1937,2.65199 0,3.65792 -0.1937,1.00592 -0.3523,0.18289 -0.3523,-1.82896 z M 53.7778,794.9873 c 0,-1.1177 0.184499,-1.57494 0.41,-1.01609 0.2255,0.55885 0.2255,1.47333 0,2.03218 -0.225501,0.55885 -0.41,0.10161 -0.41,-1.01609 z m 1854.9704,0 c 0,-1.1177 0.1846,-1.57494 0.41,-1.01609 0.2255,0.55885 0.2255,1.47333 0,2.03218 -0.2254,0.55885 -0.41,0.10161 -0.41,-1.01609 z M 52.995049,781.57494 c 0.01657,-1.34124 0.198745,-1.79152 0.404844,-1.00062 0.206097,0.7909 0.192544,1.88827 -0.03012,2.43861 -0.222667,0.55034 -0.391293,-0.0968 -0.374727,-1.43799 z m 1856.596151,0 c 0.016,-1.34124 0.1987,-1.79152 0.4049,-1.00062 0.206,0.7909 0.1925,1.88827 -0.03,2.43861 -0.2227,0.55034 -0.3912,-0.0968 -0.3747,-1.43799 z M 1.8693291,778.72989 c 0,-2.45893 0.1523853,-3.46486 0.3386339,-2.23539 0.1862487,1.22946 0.1862487,3.24132 0,4.47078 -0.1862486,1.22947 -0.3386339,0.22354 -0.3386339,-2.23539 z M 1960.8955,778.32345 c 0.01,-2.68247 0.1563,-3.68184 0.3372,-2.22083 0.1809,1.46101 0.1772,3.65576 -0.01,4.87722 -0.1854,1.22146 -0.3334,0.0261 -0.3288,-2.65639 z M 52.212299,764.91109 c 0,-1.56477 0.167285,-2.20491 0.371744,-1.42252 0.204459,0.78239 0.204459,2.06266 0,2.84505 -0.204459,0.78238 -0.371744,0.14225 -0.371744,-1.42253 z m 1858.221901,0 c 0,-1.56477 0.1673,-2.20491 0.3717,-1.42252 0.2045,0.78239 0.2045,2.06266 0,2.84505 -0.2044,0.78238 -0.3717,0.14225 -0.3717,-1.42253 z M 1.0861626,759.221 c 0,-3.35309 0.1434862,-4.72481 0.3188583,-3.04827 0.1753721,1.67655 0.1753721,4.41999 0,6.09653 -0.1753721,1.67655 -0.3188583,0.30483 -0.3188583,-3.04826 z m 1960.6435374,0 c 0,-3.35309 0.1435,-4.72481 0.3189,-3.04827 0.1754,1.67655 0.1754,4.41999 0,6.09653 -0.1754,1.67655 -0.3189,0.30483 -0.3189,-3.04826 z M 51.432237,743.77646 c 0,-2.01185 0.158522,-2.83489 0.352273,-1.82896 0.19375,1.00593 0.19375,2.65199 0,3.65792 -0.193751,1.00593 -0.352273,0.18289 -0.352273,-1.82896 z m 1859.847663,0 c 0,-2.01185 0.1585,-2.83489 0.3522,-1.82896 0.1938,1.00593 0.1938,2.65199 0,3.65792 -0.1937,1.00593 -0.3522,0.18289 -0.3522,-1.82896 z M 0.3132472,729.95766 c 0,-5.58848 0.12986987,-7.87468 0.28859971,-5.08044 0.15872984,2.79424 0.15872984,7.36664 0,10.16088 -0.15872984,2.79425 -0.28859971,0.50805 -0.28859971,-5.08044 z m 1962.2693528,0 c 0,-5.58848 0.1298,-7.87468 0.2886,-5.08044 0.1587,2.79424 0.1587,7.36664 0,10.16088 -0.1588,2.79425 -0.2886,0.50805 -0.2886,-5.08044 z M 50.761216,687.6884 c 0,-14.53006 0.110227,-20.47417 0.244948,-13.20915 0.134721,7.26503 0.134721,19.15326 0,26.41829 -0.134721,7.26503 -0.244948,1.32092 -0.244948,-13.20914 z m 1861.473384,0 c 0,-14.53006 0.1103,-20.47417 0.2449,-13.20915 0.1347,7.26503 0.1347,19.15326 0,26.41829 -0.1346,7.26503 -0.2449,1.32092 -0.2449,-13.20914 z M 0.3132472,655.98645 c 0,-5.58848 0.12986987,-7.87468 0.28859971,-5.08044 0.15872984,2.79424 0.15872984,7.36664 0,10.16088 -0.15872984,2.79424 -0.28859971,0.50805 -0.28859971,-5.08044 z m 1962.2693528,0 c 0,-5.58848 0.1298,-7.87468 0.2886,-5.08044 0.1587,2.79424 0.1587,7.36664 0,10.16088 -0.1588,2.79424 -0.2886,0.50805 -0.2886,-5.08044 z M 51.432237,631.60034 c 0,-2.01186 0.158522,-2.83489 0.352273,-1.82896 0.19375,1.00593 0.19375,2.65199 0,3.65792 -0.193751,1.00592 -0.352273,0.18289 -0.352273,-1.82896 z m 1859.847663,0 c 0,-2.01186 0.1585,-2.83489 0.3522,-1.82896 0.1938,1.00593 0.1938,2.65199 0,3.65792 -0.1937,1.00592 -0.3522,0.18289 -0.3522,-1.82896 z M 1.0861626,626.72312 c 0,-3.35309 0.1434862,-4.72481 0.3188583,-3.04827 0.1753721,1.67655 0.1753721,4.41998 0,6.09653 -0.1753721,1.67655 -0.3188583,0.30483 -0.3188583,-3.04826 z m 1960.6435374,0 c 0,-3.35309 0.1435,-4.72481 0.3189,-3.04827 0.1754,1.67655 0.1754,4.41998 0,6.09653 -0.1754,1.67655 -0.3189,0.30483 -0.3189,-3.04826 z M 52.212299,610.46571 c 0,-1.56478 0.167285,-2.20491 0.371744,-1.42253 0.204459,0.78239 0.204459,2.06266 0,2.84505 -0.204459,0.78239 -0.371744,0.14225 -0.371744,-1.42252 z m 1858.221901,0 c 0,-1.56478 0.1673,-2.20491 0.3717,-1.42253 0.2045,0.78239 0.2045,2.06266 0,2.84505 -0.2044,0.78239 -0.3717,0.14225 -0.3717,-1.42252 z M 1.8776245,607.62066 c 0.00456,-2.68247 0.1563155,-3.68185 0.3372291,-2.22083 0.1809136,1.46101 0.1771807,3.65576 -0.0083,4.87722 -0.1854761,1.22146 -0.3334963,0.0261 -0.3289338,-2.65639 z m 1959.0178755,0 c 0.01,-2.68247 0.1563,-3.68185 0.3372,-2.22083 0.1809,1.46101 0.1772,3.65576 -0.01,4.87722 -0.1854,1.22146 -0.3334,0.0261 -0.3288,-2.65639 z M 52.995049,593.80186 c 0.01657,-1.34123 0.198745,-1.79151 0.404844,-1.00062 0.206097,0.7909 0.192544,1.88828 -0.03012,2.43862 -0.222667,0.55033 -0.391293,-0.0968 -0.374727,-1.438 z m 1856.596151,0 c 0.016,-1.34123 0.1987,-1.79151 0.4049,-1.00062 0.206,0.7909 0.1925,1.88828 -0.03,2.43862 -0.2227,0.55033 -0.3912,-0.0968 -0.3747,-1.438 z m 50.472,-1.62574 c 0.01,-2.23539 0.164,-3.05339 0.3508,-1.81778 0.1868,1.23561 0.1819,3.06457 -0.011,4.06435 -0.1929,0.99978 -0.3458,-0.0111 -0.3397,-2.24657 z M 2.6600082,591.76969 c 0,-2.01186 0.1585227,-2.83489 0.3522727,-1.82896 0.1937501,1.00593 0.1937501,2.65199 0,3.65792 -0.19375,1.00592 -0.3522727,0.18289 -0.3522727,-1.82896 z M 53.7778,580.3895 c 0,-1.1177 0.184499,-1.57494 0.41,-1.01609 0.2255,0.55885 0.2255,1.47333 0,2.03218 -0.225501,0.55885 -0.41,0.10161 -0.41,-1.01609 z m 1854.9704,0 c 0,-1.1177 0.1846,-1.57494 0.41,-1.01609 0.2255,0.55885 0.2255,1.47333 0,2.03218 -0.2254,0.55885 -0.41,0.10161 -0.41,-1.01609 z M 3.4728786,577.95089 c 0,-2.01186 0.1585228,-2.83489 0.3522728,-1.82896 0.1937501,1.00593 0.1937501,2.65199 0,3.65792 -0.19375,1.00592 -0.3522728,0.18289 -0.3522728,-1.82896 z M 1959.2229,578.35732 c 0.01,-1.78831 0.1755,-2.42418 0.3699,-1.41304 0.1944,1.01114 0.187,2.4743 -0.016,3.25148 -0.2034,0.77718 -0.3625,-0.0501 -0.3535,-1.83844 z M 4.2693448,566.16427 c 0.00902,-1.78832 0.1754859,-2.42419 0.3699191,-1.41305 0.1944331,1.01114 0.1870512,2.47431 -0.016405,3.25148 -0.2034552,0.77718 -0.3625369,-0.0501 -0.3535141,-1.83843 z m 50.2571512,1.558 c 0.039,-0.94695 0.23162,-1.13956 0.491109,-0.49111 0.234815,0.58679 0.205936,1.2879 -0.06418,1.558 -0.27011,0.27011 -0.462231,-0.20999 -0.426936,-1.06689 z m 1853.344604,0 c 0.039,-0.94695 0.2317,-1.13956 0.4912,-0.49111 0.2348,0.58679 0.206,1.2879 -0.064,1.558 -0.2702,0.27011 -0.4623,-0.20999 -0.427,-1.06689 z m 50.5389,-1.558 c 0.01,-1.78832 0.1755,-2.42419 0.3699,-1.41305 0.1945,1.01114 0.1871,2.47431 -0.016,3.25148 -0.2035,0.77718 -0.3626,-0.0502 -0.3536,-1.83843 z M 55.403541,556.81626 c 0,-1.1177 0.184499,-1.57494 0.41,-1.01609 0.2255,0.55885 0.2255,1.47333 0,2.03218 -0.225501,0.55884 -0.41,0.1016 -0.41,-1.01609 z m 1851.718959,0 c 0,-1.1177 0.1845,-1.57494 0.41,-1.01609 0.2255,0.55885 0.2255,1.47333 0,2.03218 -0.2255,0.55884 -0.41,0.1016 -0.41,-1.01609 z M 5.065811,555.19052 c 0,-1.56478 0.1672849,-2.20491 0.3717442,-1.42253 0.2044594,0.78239 0.2044594,2.06266 0,2.84505 -0.2044593,0.78239 -0.3717442,0.14225 -0.3717442,-1.42252 z m 1952.514889,0 c 0,-1.56478 0.1673,-2.20491 0.3717,-1.42253 0.2045,0.78239 0.2045,2.06266 0,2.84505 -0.2044,0.78239 -0.3717,0.14225 -0.3717,-1.42252 z M 56.152237,546.58764 c 0.039,-0.94695 0.23162,-1.13956 0.491109,-0.49111 0.234815,0.58679 0.205936,1.28789 -0.06418,1.558 -0.27011,0.27011 -0.462232,-0.20999 -0.426936,-1.06689 z m 1850.093163,0 c 0.039,-0.94695 0.2317,-1.13956 0.4911,-0.49111 0.2349,0.58679 0.206,1.28789 -0.064,1.558 -0.2701,0.27011 -0.4623,-0.20999 -0.427,-1.06689 z M 5.8786815,544.6232 c 0,-1.56477 0.1672849,-2.20491 0.3717442,-1.42252 0.2044593,0.78239 0.2044593,2.06266 0,2.84504 -0.2044593,0.78239 -0.3717442,0.14226 -0.3717442,-1.42252 z m 1950.8891185,0 c 0,-1.56477 0.1673,-2.20491 0.3717,-1.42252 0.2046,0.78239 0.2046,2.06266 0,2.84504 -0.2044,0.78239 -0.3717,0.14226 -0.3717,-1.42252 z M 6.691552,535.68163 c 0,-1.56478 0.1672849,-2.20492 0.3717442,-1.42253 0.2044593,0.78239 0.2044593,2.06266 0,2.84505 -0.2044593,0.78239 -0.3717442,0.14225 -0.3717442,-1.42252 z m 50.273555,1.15156 c 0.039,-0.94695 0.23162,-1.13956 0.49111,-0.49111 0.234814,0.58679 0.205935,1.2879 -0.06418,1.55801 -0.27011,0.27011 -0.462231,-0.21 -0.426935,-1.0669 z m 1848.467393,0 c 0.039,-0.94695 0.2317,-1.13956 0.4912,-0.49111 0.2348,0.58679 0.2059,1.2879 -0.064,1.55801 -0.2702,0.27011 -0.4623,-0.21 -0.427,-1.0669 z m 50.5225,-1.15156 c 0,-1.56478 0.1672,-2.20492 0.3717,-1.42253 0.2045,0.78239 0.2045,2.06266 0,2.84505 -0.2045,0.78239 -0.3717,0.14225 -0.3717,-1.42252 z M 57.777977,527.89162 c 0.039,-0.94695 0.231621,-1.13956 0.49111,-0.49111 0.234815,0.58678 0.205936,1.28789 -0.06418,1.558 -0.27011,0.27011 -0.462232,-0.20999 -0.426936,-1.06689 z m 1846.841723,0 c 0.039,-0.94695 0.2316,-1.13956 0.4911,-0.49111 0.2348,0.58678 0.206,1.28789 -0.064,1.558 -0.2701,0.27011 -0.4623,-0.20999 -0.427,-1.06689 z M 7.4743023,526.33362 c 0.016566,-1.34124 0.1987457,-1.79152 0.4048437,-1.00062 0.2060979,0.79089 0.1925439,1.88827 -0.03012,2.43861 -0.222664,0.55034 -0.3912896,-0.0968 -0.3747237,-1.43799 z m 1947.6375977,0 c 0.016,-1.34124 0.1988,-1.79152 0.4049,-1.00062 0.2061,0.79089 0.1926,1.88827 -0.03,2.43861 -0.2226,0.55034 -0.3912,-0.0968 -0.3747,-1.43799 z M 8.287173,518.20491 c 0.016566,-1.34124 0.1987453,-1.79152 0.4048437,-1.00062 0.2060976,0.7909 0.1925438,1.88828 -0.030117,2.43861 -0.2226671,0.55034 -0.3912931,-0.0968 -0.3747267,-1.43799 z m 1946.011927,0 c 0.016,-1.34124 0.1987,-1.79152 0.4048,-1.00062 0.2061,0.7909 0.1926,1.88828 -0.03,2.43861 -0.2227,0.55034 -0.3913,-0.0968 -0.3748,-1.43799 z M 9.1000435,510.07621 c 0.016566,-1.34124 0.1987452,-1.79152 0.4048437,-1.00062 0.2060976,0.7909 0.1925438,1.88827 -0.030117,2.43861 -0.2226672,0.55034 -0.3912931,-0.0968 -0.3747267,-1.43799 z m 1944.3861565,0 c 0.016,-1.34124 0.1987,-1.79152 0.4049,-1.00062 0.206,0.7909 0.1925,1.88827 -0.03,2.43861 -0.2226,0.55034 -0.3912,-0.0968 -0.3747,-1.43799 z M 60.216589,503.50551 c 0.039,-0.94696 0.23162,-1.13957 0.491109,-0.49112 0.234815,0.58679 0.205936,1.2879 -0.06418,1.55801 -0.27011,0.27011 -0.462231,-0.21 -0.426936,-1.06689 z m 1841.964411,0 c 0.039,-0.94696 0.2317,-1.13957 0.4912,-0.49112 0.2348,0.58679 0.206,1.2879 -0.064,1.55801 -0.2701,0.27011 -0.4623,-0.21 -0.427,-1.06689 z M 9.912914,501.9475 c 0.016566,-1.34123 0.198745,-1.79152 0.404844,-1.00062 0.206097,0.7909 0.192543,1.88828 -0.03012,2.43861 -0.222667,0.55034 -0.3912933,-0.0967 -0.374727,-1.43799 z m 1942.760386,0 c 0.016,-1.34123 0.1988,-1.79152 0.4049,-1.00062 0.2061,0.7909 0.1926,1.88828 -0.03,2.43861 -0.2226,0.55034 -0.3912,-0.0967 -0.3747,-1.43799 z M 61.029459,496.18967 c 0.039,-0.94695 0.231621,-1.13956 0.49111,-0.49111 0.234815,0.58679 0.205936,1.2879 -0.06418,1.558 -0.270111,0.27011 -0.462232,-0.20999 -0.426936,-1.06689 z m 1840.338741,0 c 0.039,-0.94695 0.2316,-1.13956 0.4911,-0.49111 0.2349,0.58679 0.206,1.2879 -0.064,1.558 -0.2701,0.27011 -0.4623,-0.20999 -0.427,-1.06689 z m -1890.642416,-1.558 c 0.01657,-1.34124 0.198746,-1.79152 0.404844,-1.00062 0.206098,0.7909 0.192544,1.88827 -0.03012,2.43861 -0.222667,0.55034 -0.391293,-0.0968 -0.374727,-1.43799 z m 1941.134616,0 c 0.016,-1.34124 0.1988,-1.79152 0.4049,-1.00062 0.2061,0.7909 0.1926,1.88827 -0.03,2.43861 -0.2227,0.55034 -0.3913,-0.0968 -0.3748,-1.43799 z M 11.508535,487.72227 c 0,-1.1177 0.1845,-1.57494 0.41,-1.01609 0.2255,0.55885 0.2255,1.47333 0,2.03218 -0.2255,0.55885 -0.41,0.10161 -0.41,-1.01609 z m 1939.508965,0 c 0,-1.1177 0.1845,-1.57494 0.41,-1.01609 0.2255,0.55885 0.2255,1.47333 0,2.03218 -0.2255,0.55885 -0.41,0.10161 -0.41,-1.01609 z M 62.6552,482.37087 c 0.039,-0.94695 0.23162,-1.13956 0.49111,-0.49111 0.234815,0.58679 0.205936,1.2879 -0.06418,1.55801 -0.270111,0.27011 -0.462232,-0.21 -0.426936,-1.0669 z m 1837.0872,0 c 0.039,-0.94695 0.2317,-1.13956 0.4912,-0.49111 0.2348,0.58679 0.206,1.2879 -0.064,1.55801 -0.2702,0.27011 -0.4623,-0.21 -0.427,-1.0669 z M 12.321405,480.40644 c 0,-1.1177 0.1845,-1.57494 0.410001,-1.01609 0.2255,0.55885 0.2255,1.47332 0,2.03217 -0.225501,0.55885 -0.410001,0.10161 -0.410001,-1.01608 z m 1937.883195,0 c 0,-1.1177 0.1845,-1.57494 0.41,-1.01609 0.2255,0.55885 0.2255,1.47332 0,2.03217 -0.2255,0.55885 -0.41,0.10161 -0.41,-1.01608 z M 13.134276,473.90347 c 0,-1.1177 0.184499,-1.57493 0.41,-1.01609 0.2255,0.55885 0.2255,1.47333 0,2.03218 -0.225501,0.55885 -0.41,0.10161 -0.41,-1.01609 z m 1936.257524,0 c 0,-1.1177 0.1845,-1.57493 0.41,-1.01609 0.2255,0.55885 0.2255,1.47333 0,2.03218 -0.2255,0.55885 -0.41,0.10161 -0.41,-1.01609 z M 13.947146,467.40051 c 0,-1.1177 0.1845,-1.57494 0.410001,-1.01609 0.2255,0.55885 0.2255,1.47333 0,2.03218 -0.225501,0.55884 -0.410001,0.1016 -0.410001,-1.01609 z m 1934.631754,0 c 0,-1.1177 0.1845,-1.57494 0.41,-1.01609 0.2255,0.55885 0.2255,1.47333 0,2.03218 -0.2255,0.55884 -0.41,0.1016 -0.41,-1.01609 z M 14.760017,460.89754 c 0,-1.11769 0.184499,-1.57493 0.41,-1.01608 0.2255,0.55884 0.2255,1.47332 0,2.03217 -0.225501,0.55885 -0.41,0.10161 -0.41,-1.01609 z m 1933.005983,0 c 0,-1.11769 0.1845,-1.57493 0.41,-1.01608 0.2255,0.55884 0.2255,1.47332 0,2.03217 -0.2255,0.55885 -0.41,0.10161 -0.41,-1.01609 z M 15.572887,455.20745 c 0,-1.1177 0.1845,-1.57494 0.410001,-1.01609 0.2255,0.55885 0.2255,1.47333 0,2.03218 -0.225501,0.55885 -0.410001,0.10161 -0.410001,-1.01609 z m 1931.380213,0 c 0,-1.1177 0.1846,-1.57494 0.4101,-1.01609 0.2254,0.55885 0.2254,1.47333 0,2.03218 -0.2255,0.55885 -0.4101,0.10161 -0.4101,-1.01609 z M 16.321583,449.04319 c 0.039,-0.94696 0.23162,-1.13957 0.49111,-0.49112 0.234814,0.58679 0.205936,1.2879 -0.06418,1.55801 -0.270111,0.27011 -0.462232,-0.21 -0.426936,-1.06689 z m 1929.754517,0 c 0.039,-0.94696 0.2316,-1.13957 0.4911,-0.49112 0.2348,0.58679 0.206,1.2879 -0.064,1.55801 -0.2701,0.27011 -0.4623,-0.21 -0.427,-1.06689 z M 17.198628,443.01439 c 0,-1.11769 0.1845,-1.57493 0.410001,-1.01608 0.2255,0.55884 0.2255,1.47332 0,2.03217 -0.225501,0.55885 -0.410001,0.10161 -0.410001,-1.01609 z m 1928.128772,0 c 0,-1.11769 0.1845,-1.57493 0.41,-1.01608 0.2255,0.55884 0.2255,1.47332 0,2.03217 -0.2255,0.55885 -0.41,0.10161 -0.41,-1.01609 z M 18.011499,437.3243 c 0,-1.1177 0.184499,-1.57494 0.41,-1.01609 0.2255,0.55885 0.2255,1.47333 0,2.03218 -0.225501,0.55885 -0.41,0.10161 -0.41,-1.01609 z M 1944.4503,437.663 c 0.039,-0.94695 0.2317,-1.13956 0.4912,-0.49111 0.2348,0.58679 0.2059,1.28789 -0.064,1.558 -0.2701,0.27011 -0.4622,-0.20999 -0.427,-1.06689 z M 18.760195,431.97291 c 0.039,-0.94696 0.23162,-1.13957 0.491109,-0.49111 0.234815,0.58678 0.205936,1.28789 -0.06418,1.558 -0.27011,0.27011 -0.462231,-0.21 -0.426936,-1.06689 z m 1924.877205,0 c 0.039,-0.94696 0.2317,-1.13957 0.4912,-0.49111 0.2348,0.58678 0.206,1.28789 -0.064,1.558 -0.2702,0.27011 -0.4623,-0.21 -0.427,-1.06689 z M 19.573065,426.28281 c 0.039,-0.94695 0.23162,-1.13956 0.49111,-0.49111 0.234814,0.58679 0.205935,1.2879 -0.06418,1.55801 -0.270111,0.27011 -0.462232,-0.21 -0.426936,-1.0669 z m 1923.251535,0 c 0.039,-0.94695 0.2316,-1.13956 0.4911,-0.49111 0.2348,0.58679 0.206,1.2879 -0.064,1.55801 -0.2701,0.27011 -0.4623,-0.21 -0.427,-1.0669 z M 20.385936,421.40559 c 0.039,-0.94695 0.23162,-1.13956 0.491109,-0.49111 0.234815,0.58679 0.205936,1.28789 -0.06418,1.558 -0.27011,0.27011 -0.462231,-0.20999 -0.426936,-1.06689 z m 1921.625764,0 c 0.039,-0.94695 0.2317,-1.13956 0.4911,-0.49111 0.2349,0.58679 0.206,1.28789 -0.064,1.558 -0.2701,0.27011 -0.4623,-0.20999 -0.427,-1.06689 z M 21.198806,415.7155 c 0.039,-0.94696 0.23162,-1.13957 0.49111,-0.49111 0.234814,0.58678 0.205935,1.28789 -0.06418,1.558 -0.27011,0.27011 -0.462231,-0.21 -0.426935,-1.06689 z m 1919.999994,0 c 0.039,-0.94696 0.2317,-1.13957 0.4912,-0.49111 0.2348,0.58678 0.206,1.28789 -0.064,1.558 -0.2702,0.27011 -0.4623,-0.21 -0.427,-1.06689 z M 22.011677,410.83828 c 0.039,-0.94696 0.23162,-1.13957 0.491109,-0.49112 0.234815,0.58679 0.205936,1.2879 -0.06418,1.55801 -0.27011,0.27011 -0.462232,-0.21 -0.426936,-1.06689 z m 1918.374323,0 c 0.039,-0.94696 0.2316,-1.13957 0.4911,-0.49112 0.2348,0.58679 0.206,1.2879 -0.064,1.55801 -0.2701,0.27011 -0.4623,-0.21 -0.427,-1.06689 z M 22.824547,405.96105 c 0.039,-0.94695 0.23162,-1.13956 0.49111,-0.49111 0.234814,0.58679 0.205935,1.2879 -0.06418,1.55801 -0.27011,0.2701 -0.462231,-0.21 -0.426935,-1.0669 z m 1916.748553,0 c 0.039,-0.94695 0.2317,-1.13956 0.4911,-0.49111 0.2349,0.58679 0.206,1.2879 -0.064,1.55801 -0.2701,0.2701 -0.4623,-0.21 -0.427,-1.0669 z M 23.637417,401.08383 c 0.039,-0.94695 0.231621,-1.13956 0.49111,-0.49111 0.234815,0.58678 0.205936,1.28789 -0.06418,1.558 -0.27011,0.27011 -0.462232,-0.20999 -0.426936,-1.06689 z m 1915.122783,0 c 0.039,-0.94695 0.2317,-1.13956 0.4912,-0.49111 0.2348,0.58678 0.2059,1.28789 -0.064,1.558 -0.2701,0.27011 -0.4622,-0.20999 -0.427,-1.06689 z M 24.450288,396.20661 c 0.039,-0.94696 0.23162,-1.13957 0.491109,-0.49111 0.234815,0.58678 0.205936,1.28789 -0.06418,1.558 -0.27011,0.27011 -0.462231,-0.21 -0.426935,-1.06689 z m 1913.497112,0 c 0.039,-0.94696 0.2316,-1.13957 0.4911,-0.49111 0.2348,0.58678 0.206,1.28789 -0.064,1.558 -0.2701,0.27011 -0.4623,-0.21 -0.427,-1.06689 z M 25.263158,391.32938 c 0.039,-0.94695 0.231621,-1.13956 0.49111,-0.49111 0.234815,0.58679 0.205936,1.2879 -0.06418,1.55801 -0.270111,0.27011 -0.462232,-0.21 -0.426936,-1.0669 z m 1911.871342,0 c 0.039,-0.94695 0.2316,-1.13956 0.4911,-0.49111 0.2349,0.58679 0.206,1.2879 -0.064,1.55801 -0.2701,0.27011 -0.4623,-0.21 -0.427,-1.0669 z M 26.076029,386.45216 c 0.039,-0.94695 0.23162,-1.13956 0.491109,-0.49111 0.234815,0.58679 0.205936,1.2879 -0.06418,1.558 -0.27011,0.27011 -0.462231,-0.20999 -0.426936,-1.06689 z m 1910.245571,0 c 0.039,-0.94695 0.2317,-1.13956 0.4911,-0.49111 0.2349,0.58679 0.206,1.2879 -0.064,1.558 -0.2701,0.27011 -0.4623,-0.20999 -0.427,-1.06689 z M 26.888899,381.57494 c 0.039,-0.94695 0.231621,-1.13956 0.49111,-0.49111 0.234815,0.58678 0.205936,1.28789 -0.06418,1.558 -0.270111,0.27011 -0.462232,-0.21 -0.426936,-1.06689 z m 1908.619801,0 c 0.039,-0.94695 0.2317,-1.13956 0.4912,-0.49111 0.2348,0.58678 0.206,1.28789 -0.064,1.558 -0.2702,0.27011 -0.4623,-0.21 -0.427,-1.06689 z M 27.70177,377.51059 c 0.039,-0.94696 0.23162,-1.13957 0.491109,-0.49111 0.234815,0.58678 0.205936,1.28789 -0.06418,1.558 -0.27011,0.27011 -0.462231,-0.21 -0.426936,-1.06689 z m 1906.99413,0 c 0.039,-0.94696 0.2316,-1.13957 0.4911,-0.49111 0.2348,0.58678 0.206,1.28789 -0.064,1.558 -0.2701,0.27011 -0.4623,-0.21 -0.427,-1.06689 z M 28.51464,372.63336 c 0.039,-0.94695 0.23162,-1.13956 0.49111,-0.49111 0.234815,0.58679 0.205936,1.2879 -0.06418,1.55801 -0.270111,0.27011 -0.462232,-0.21 -0.426936,-1.0669 z m 1905.36836,0 c 0.039,-0.94695 0.2317,-1.13956 0.4911,-0.49111 0.2349,0.58679 0.206,1.2879 -0.064,1.55801 -0.2701,0.27011 -0.4623,-0.21 -0.427,-1.0669 z M 29.327511,368.56901 c 0.039,-0.94695 0.23162,-1.13956 0.491109,-0.49111 0.234815,0.58679 0.205936,1.2879 -0.06418,1.558 -0.27011,0.27011 -0.462231,-0.20999 -0.426936,-1.06689 z m 1903.742589,0 c 0.039,-0.94695 0.2317,-1.13956 0.4912,-0.49111 0.2348,0.58679 0.2059,1.2879 -0.064,1.558 -0.2701,0.27011 -0.4622,-0.20999 -0.427,-1.06689 z M 30.953252,359.62744 c 0.039,-0.94696 0.23162,-1.13957 0.491109,-0.49111 0.234815,0.58678 0.205936,1.28789 -0.06418,1.558 -0.27011,0.27011 -0.462231,-0.21 -0.426936,-1.06689 z m 1900.491148,0 c 0.039,-0.94696 0.2317,-1.13957 0.4911,-0.49111 0.2349,0.58678 0.206,1.28789 -0.064,1.558 -0.2701,0.27011 -0.4623,-0.21 -0.427,-1.06689 z M 31.766122,355.56308 c 0.039,-0.94695 0.23162,-1.13956 0.49111,-0.49111 0.234814,0.58679 0.205936,1.2879 -0.06418,1.55801 -0.270111,0.27011 -0.462232,-0.21 -0.426936,-1.0669 z m 1898.865378,0 c 0.039,-0.94695 0.2317,-1.13956 0.4912,-0.49111 0.2348,0.58679 0.2059,1.2879 -0.064,1.55801 -0.2701,0.27011 -0.4622,-0.21 -0.427,-1.0669 z M 32.578993,351.49873 c 0.039,-0.94695 0.23162,-1.13956 0.491109,-0.49111 0.234815,0.58679 0.205936,1.2879 -0.06418,1.55801 -0.27011,0.2701 -0.462231,-0.21 -0.426936,-1.0669 z m 1897.239607,0 c 0.039,-0.94695 0.2317,-1.13956 0.4912,-0.49111 0.2348,0.58679 0.206,1.2879 -0.064,1.55801 -0.2702,0.2701 -0.4623,-0.21 -0.427,-1.0669 z m -0.8128,-4.06435 c 0.039,-0.94695 0.2316,-1.13956 0.4911,-0.49111 0.2349,0.58679 0.206,1.28789 -0.064,1.558 -0.2701,0.27011 -0.4623,-0.20999 -0.427,-1.06689 z m -0.8129,-4.06435 c 0.039,-0.94696 0.2317,-1.13956 0.4911,-0.49111 0.2349,0.58678 0.206,1.28789 -0.064,1.558 -0.2701,0.27011 -0.4623,-0.21 -0.427,-1.06689 z m -0.8129,-4.06435 c 0.039,-0.94696 0.2317,-1.13957 0.4912,-0.49112 0.2348,0.58679 0.206,1.2879 -0.064,1.55801 -0.2702,0.27011 -0.4623,-0.21 -0.427,-1.06689 z M 35.830475,335.24132 c 0.039,-0.94695 0.23162,-1.13956 0.491109,-0.49111 0.234815,0.58679 0.205936,1.2879 -0.06418,1.55801 -0.27011,0.2701 -0.462231,-0.21 -0.426936,-1.0669 z m 1890.736725,0 c 0.039,-0.94695 0.2316,-1.13956 0.4911,-0.49111 0.2348,0.58679 0.206,1.2879 -0.064,1.55801 -0.2701,0.2701 -0.4623,-0.21 -0.427,-1.0669 z M 36.643345,331.17697 c 0.039,-0.94695 0.23162,-1.13956 0.49111,-0.49111 0.234814,0.58679 0.205935,1.2879 -0.06418,1.558 -0.270111,0.27011 -0.462232,-0.20999 -0.426936,-1.06689 z m 1889.110955,0 c 0.039,-0.94695 0.2317,-1.13956 0.4911,-0.49111 0.2349,0.58679 0.206,1.2879 -0.064,1.558 -0.2701,0.27011 -0.4623,-0.20999 -0.427,-1.06689 z M 418.01864,322.91822 c 3.46486,-0.15237 9.13463,-0.15237 12.59949,0 3.46487,0.15238 0.62998,0.27705 -6.29974,0.27705 -6.92972,0 -9.76461,-0.12467 -6.29975,-0.27705 z m 1114.44546,0 c 3.4648,-0.15237 9.1346,-0.15237 12.5995,0 3.4648,0.15238 0.6299,0.27705 -6.2998,0.27705 -6.9297,0 -9.7646,-0.12467 -6.2997,-0.27705 z M 383.87808,322.14923 c 0.78239,-0.20445 2.06266,-0.20445 2.84505,0 0.78239,0.20446 0.14225,0.37175 -1.42252,0.37175 -1.56478,0 -2.20492,-0.16729 -1.42253,-0.37175 z m 78.45148,-0.0145 c 1.01114,-0.19443 2.47431,-0.18705 3.25148,0.0164 0.77718,0.20346 -0.0501,0.36254 -1.83843,0.35352 -1.78832,-0.009 -2.42419,-0.17549 -1.41305,-0.36992 z m 1035.59704,0 c 1.0111,-0.19443 2.4743,-0.18705 3.2515,0.0164 0.7771,0.20346 -0.05,0.36254 -1.8385,0.35352 -1.7883,-0.009 -2.4242,-0.17549 -1.413,-0.36992 z m 78.4325,0.0145 c 0.7824,-0.20445 2.0626,-0.20445 2.845,0 0.7824,0.20446 0.1423,0.37175 -1.4225,0.37175 -1.5648,0 -2.2049,-0.16729 -1.4225,-0.37175 z M 367.21424,321.35835 c 0.55885,-0.2255 1.47333,-0.2255 2.03217,0 0.55885,0.2255 0.10161,0.41 -1.01608,0.41 -1.1177,0 -1.57494,-0.1845 -1.01609,-0.41 z m 112.17612,0 c 0.55885,-0.2255 1.47333,-0.2255 2.03218,0 0.55885,0.2255 0.10161,0.41 -1.01609,0.41 -1.1177,0 -1.57494,-0.1845 -1.01609,-0.41 z m 1002.26934,0 c 0.5588,-0.2255 1.4733,-0.2255 2.0321,0 0.5589,0.2255 0.1016,0.41 -1.0161,0.41 -1.1176,0 -1.5749,-0.1845 -1.016,-0.41 z m 112.1761,0 c 0.5588,-0.2255 1.4733,-0.2255 2.0322,0 0.5588,0.2255 0.1016,0.41 -1.0161,0.41 -1.1177,0 -1.575,-0.1845 -1.0161,-0.41 z m -1238.76382,-0.8298 c 0.58679,-0.23482 1.2879,-0.20594 1.55801,0.0641 0.27011,0.27011 -0.21,0.46223 -1.06689,0.42694 -0.94696,-0.039 -1.13957,-0.23162 -0.49112,-0.49111 z m 137.32431,0.0169 c 0.55885,-0.2255 1.47333,-0.2255 2.03218,0 0.55885,0.22549 0.10161,0.41 -1.01609,0.41 -1.1177,0 -1.57494,-0.18451 -1.01609,-0.41 z m 976.25741,0 c 0.5589,-0.2255 1.4734,-0.2255 2.0322,0 0.5589,0.22549 0.1016,0.41 -1.0161,0.41 -1.1177,0 -1.5749,-0.18451 -1.0161,-0.41 z m 138.2388,-0.0169 c 0.5868,-0.23482 1.2879,-0.20594 1.558,0.0641 0.2702,0.27011 -0.21,0.46223 -1.0668,0.42694 -0.947,-0.039 -1.1396,-0.23162 -0.4912,-0.49111 z m 316.4232,-0.73176 c 0.039,-0.94696 0.2317,-1.13957 0.4911,-0.49112 0.2349,0.58679 0.206,1.2879 -0.064,1.55801 -0.2701,0.27011 -0.4623,-0.21 -0.427,-1.06689 z m -1578.81103,-0.0811 c 0.58679,-0.23481 1.28789,-0.20594 1.558,0.0641 0.27011,0.2701 -0.20999,0.46223 -1.06689,0.42693 -0.94695,-0.039 -1.13956,-0.23162 -0.49111,-0.4911 z m 158.45894,0.0169 c 0.55885,-0.2255 1.47332,-0.2255 2.03217,0 0.55885,0.2255 0.10161,0.41 -1.01608,0.41 -1.1177,0 -1.57494,-0.1845 -1.01609,-0.41 z m 955.12279,0 c 0.5589,-0.2255 1.4733,-0.2255 2.0322,0 0.5588,0.2255 0.1016,0.41 -1.0161,0.41 -1.1177,0 -1.5749,-0.1845 -1.0161,-0.41 z m 159.3734,-0.0169 c 0.5868,-0.23481 1.2879,-0.20594 1.5581,0.0641 0.2701,0.2701 -0.2101,0.46223 -1.0669,0.42693 -0.947,-0.039 -1.1396,-0.23162 -0.4912,-0.4911 z m -1282.70958,-0.8129 c 0.58679,-0.23481 1.2879,-0.20594 1.55801,0.0641 0.27011,0.2701 -0.21,0.46223 -1.0669,0.42693 -0.94695,-0.039 -1.13956,-0.23162 -0.49111,-0.4911 z m 178.01864,0 c 0.58678,-0.23481 1.28789,-0.20594 1.558,0.0641 0.27011,0.2701 -0.21,0.46223 -1.06689,0.42693 -0.94695,-0.039 -1.13956,-0.23162 -0.49111,-0.4911 z m 936.42674,0 c 0.5869,-0.23481 1.288,-0.20594 1.5581,0.0641 0.2701,0.2701 -0.2101,0.46223 -1.0669,0.42693 -0.947,-0.039 -1.1396,-0.23162 -0.4912,-0.4911 z m 178.0187,0 c 0.5868,-0.23481 1.2879,-0.20594 1.558,0.0641 0.2701,0.2701 -0.21,0.46223 -1.0669,0.42693 -0.947,-0.039 -1.1395,-0.23162 -0.4911,-0.4911 z M 326.62152,318.08992 c 0.58679,-0.23481 1.28789,-0.20594 1.558,0.0641 0.27011,0.2701 -0.20999,0.46223 -1.06689,0.42693 -0.94695,-0.039 -1.13956,-0.23162 -0.49111,-0.4911 z m 1308.72148,0 c 0.5868,-0.23481 1.2879,-0.20594 1.558,0.0641 0.2701,0.2701 -0.21,0.46223 -1.0669,0.42693 -0.947,-0.039 -1.1395,-0.23162 -0.4911,-0.4911 z M 529.02627,317.27705 c 0.58678,-0.23481 1.28789,-0.20594 1.558,0.0641 0.27011,0.27011 -0.21,0.46224 -1.06689,0.42694 -0.94695,-0.039 -1.13956,-0.23162 -0.49111,-0.4911 z m 903.91193,0 c 0.5868,-0.23481 1.2879,-0.20594 1.5581,0.0641 0.2701,0.27011 -0.2101,0.46224 -1.0669,0.42694 -0.947,-0.039 -1.1396,-0.23162 -0.4912,-0.4911 z m -896.5961,-0.81287 c 0.58679,-0.23482 1.2879,-0.20594 1.55801,0.0641 0.2701,0.27011 -0.21,0.46223 -1.0669,0.42694 -0.94695,-0.039 -1.13956,-0.23162 -0.49111,-0.4911 z m 889.2803,0 c 0.5868,-0.23482 1.2879,-0.20594 1.558,0.0641 0.2701,0.27011 -0.21,0.46223 -1.0669,0.42694 -0.947,-0.039 -1.1395,-0.23162 -0.4911,-0.4911 z M 41.520568,308.4166 c 0.039,-0.94695 0.23162,-1.13956 0.491109,-0.49111 0.234815,0.58678 0.205936,1.28789 -0.06418,1.558 -0.27011,0.27011 -0.462231,-0.21 -0.426935,-1.06689 z M 396.90853,280.65468 c 2.13712,-0.168 5.42925,-0.16597 7.31584,0.005 1.8866,0.17048 0.13805,0.30793 -3.88566,0.30545 -4.02371,-0.002 -5.56729,-0.14196 -3.43018,-0.30995 z m 53.64946,0 c 2.13711,-0.168 5.42924,-0.16597 7.31583,0.005 1.8866,0.17048 0.13805,0.30793 -3.88566,0.30545 -4.02371,-0.002 -5.56728,-0.14196 -3.43017,-0.30995 z m 1055.10591,0 c 2.1371,-0.168 5.4292,-0.16597 7.3158,0.005 1.8866,0.17048 0.138,0.30793 -3.8857,0.30545 -4.0237,-0.002 -5.5672,-0.14196 -3.4301,-0.30995 z m 53.6494,0 c 2.1372,-0.168 5.4293,-0.16597 7.3159,0.005 1.8866,0.17048 0.138,0.30793 -3.8857,0.30545 -4.0237,-0.002 -5.5673,-0.14196 -3.4302,-0.30995 z M 377.37512,279.85809 c 1.22947,-0.18626 3.24132,-0.18626 4.47079,0 1.22946,0.18624 0.22354,0.33863 -2.2354,0.33863 -2.45893,0 -3.46486,-0.15239 -2.23539,-0.33863 z m 95.10584,0 c 1.22947,-0.18626 3.24133,-0.18626 4.47079,0 1.22947,0.18624 0.22354,0.33863 -2.23539,0.33863 -2.45894,0 -3.46486,-0.15239 -2.2354,-0.33863 z m 1013.64944,0 c 1.2295,-0.18626 3.2414,-0.18626 4.4708,0 1.2295,0.18624 0.2236,0.33863 -2.2354,0.33863 -2.4589,0 -3.4648,-0.15239 -2.2354,-0.33863 z m 95.1059,0 c 1.2295,-0.18626 3.2413,-0.18626 4.4708,0 1.2294,0.18624 0.2235,0.33863 -2.2354,0.33863 -2.4589,0 -3.4649,-0.15239 -2.2354,-0.33863 z M 363.96276,279.05377 c 1.00592,-0.19376 2.65199,-0.19376 3.65791,0 1.00593,0.19374 0.1829,0.35227 -1.82896,0.35227 -2.01185,0 -2.83488,-0.15853 -1.82895,-0.35227 z m 122.74344,0 c 1.00592,-0.19376 2.65199,-0.19376 3.65791,0 1.00593,0.19374 0.1829,0.35227 -1.82895,0.35227 -2.01186,0 -2.83489,-0.15853 -1.82896,-0.35227 z m 986.0119,0 c 1.0059,-0.19376 2.652,-0.19376 3.6579,0 1.0059,0.19374 0.1829,0.35227 -1.829,0.35227 -2.0118,0 -2.8348,-0.15853 -1.8289,-0.35227 z m 122.7434,0 c 1.006,-0.19376 2.652,-0.19376 3.6579,0 1.006,0.19374 0.1829,0.35227 -1.8289,0.35227 -2.0119,0 -2.8349,-0.15853 -1.829,-0.35227 z M 352.989,278.25423 c 0.78239,-0.20446 2.06266,-0.20446 2.84505,0 0.78239,0.20446 0.14225,0.37175 -1.42252,0.37175 -1.56478,0 -2.20491,-0.16729 -1.42253,-0.37175 z m 145.10686,-0.0145 c 1.01114,-0.19443 2.47431,-0.18705 3.25148,0.0164 0.77718,0.20345 -0.0501,0.36254 -1.83843,0.35351 -1.78832,-0.009 -2.42419,-0.17549 -1.41305,-0.36992 z m 964.06444,0 c 1.0111,-0.19443 2.4743,-0.18705 3.2515,0.0164 0.7771,0.20345 -0.05,0.36254 -1.8385,0.35351 -1.7883,-0.009 -2.4242,-0.17549 -1.413,-0.36992 z m 145.0878,0.0145 c 0.7824,-0.20446 2.0627,-0.20446 2.8451,0 0.7824,0.20446 0.1422,0.37175 -1.4225,0.37175 -1.5648,0 -2.2049,-0.16729 -1.4226,-0.37175 z M 344.0629,277.43838 c 0.7909,-0.20609 1.88827,-0.19254 2.43861,0.0302 0.55034,0.22267 -0.0968,0.39129 -1.43799,0.37473 -1.34124,-0.0166 -1.79152,-0.19875 -1.00062,-0.40485 z m 164.19983,0 c 0.7909,-0.20609 1.88828,-0.19254 2.43862,0.0302 0.55033,0.22267 -0.0968,0.39129 -1.438,0.37473 -1.34123,-0.0166 -1.79151,-0.19875 -1.00062,-0.40485 z m 944.55547,0 c 0.7909,-0.20609 1.8883,-0.19254 2.4386,0.0302 0.5504,0.22267 -0.097,0.39129 -1.438,0.37473 -1.3412,-0.0166 -1.7914,-0.19875 -1.0006,-0.40485 z m 164.1998,0 c 0.791,-0.20609 1.8883,-0.19254 2.4387,0.0302 0.5503,0.22267 -0.097,0.39129 -1.438,0.37473 -1.3413,-0.0166 -1.7915,-0.19875 -1.0007,-0.40485 z M 335.93419,276.62551 c 0.7909,-0.20609 1.88828,-0.19254 2.43861,0.0302 0.55034,0.22267 -0.0967,0.39129 -1.43799,0.37472 -1.34123,-0.0166 -1.79152,-0.19874 -1.00062,-0.40484 z m 180.45725,0 c 0.7909,-0.20609 1.88827,-0.19254 2.43861,0.0302 0.55034,0.22267 -0.0968,0.39129 -1.43799,0.37472 -1.34124,-0.0166 -1.79152,-0.19874 -1.00062,-0.40484 z m 928.29806,0 c 0.7909,-0.20609 1.8883,-0.19254 2.4386,0.0302 0.5504,0.22267 -0.097,0.39129 -1.438,0.37472 -1.3412,-0.0166 -1.7914,-0.19874 -1.0006,-0.40484 z m 180.4572,0 c 0.791,-0.20609 1.8883,-0.19254 2.4387,0.0302 0.5504,0.22267 -0.097,0.39129 -1.438,0.37472 -1.3412,-0.0166 -1.7915,-0.19874 -1.0007,-0.40484 z M 327.80549,275.81264 c 0.7909,-0.20609 1.88827,-0.19254 2.43861,0.0302 0.55034,0.22267 -0.0968,0.39129 -1.43799,0.37472 -1.34124,-0.0166 -1.79152,-0.19874 -1.00062,-0.40484 z m 196.71465,0 c 0.7909,-0.20609 1.88828,-0.19254 2.43862,0.0302 0.55033,0.22267 -0.0968,0.39129 -1.438,0.37472 -1.34123,-0.0166 -1.79151,-0.19874 -1.00062,-0.40484 z m 912.04066,0 c 0.7909,-0.20609 1.8883,-0.19254 2.4386,0.0302 0.5504,0.22267 -0.097,0.39129 -1.438,0.37472 -1.3412,-0.0166 -1.7914,-0.19874 -1.0006,-0.40484 z m 196.7146,0 c 0.791,-0.20609 1.8883,-0.19254 2.4387,0.0302 0.5504,0.22267 -0.097,0.39129 -1.438,0.37472 -1.3412,-0.0166 -1.7915,-0.19874 -1.0007,-0.40484 z M 320.88062,275.02473 c 0.55885,-0.22549 1.47333,-0.22549 2.03218,0 0.55885,0.2255 0.10161,0.41001 -1.01609,0.41001 -1.1177,0 -1.57494,-0.18451 -1.01609,-0.41001 z m 210.95536,-0.0249 c 0.7909,-0.2061 1.88827,-0.19255 2.43861,0.0302 0.55034,0.22267 -0.0968,0.39129 -1.43799,0.37472 -1.34124,-0.0166 -1.79152,-0.19875 -1.00062,-0.40484 z m 897.40902,0 c 0.7909,-0.2061 1.8883,-0.19255 2.4386,0.0302 0.5504,0.22267 -0.097,0.39129 -1.438,0.37472 -1.3412,-0.0166 -1.7915,-0.19875 -1.0006,-0.40484 z m 210.9244,0.0249 c 0.5589,-0.22549 1.4733,-0.22549 2.0322,0 0.5588,0.2255 0.1016,0.41001 -1.0161,0.41001 -1.1177,0 -1.5749,-0.18451 -1.0161,-0.41001 z M 313.56479,274.21186 c 0.55884,-0.22549 1.47332,-0.22549 2.03217,0 0.55885,0.2255 0.10161,0.41001 -1.01609,0.41001 -1.11769,0 -1.57493,-0.18451 -1.01608,-0.41001 z m 225.16512,0 c 0.55885,-0.22549 1.47333,-0.22549 2.03217,0 0.55885,0.2255 0.10161,0.41001 -1.01608,0.41001 -1.1177,0 -1.57494,-0.18451 -1.01609,-0.41001 z m 883.59019,0 c 0.5589,-0.22549 1.4733,-0.22549 2.0322,0 0.5588,0.2255 0.1016,0.41001 -1.0161,0.41001 -1.1177,0 -1.5749,-0.18451 -1.0161,-0.41001 z m 225.2159,-0.0169 c 0.5869,-0.23482 1.288,-0.20594 1.5581,0.0641 0.2701,0.27011 -0.2101,0.46223 -1.0669,0.42694 -0.947,-0.039 -1.1396,-0.23162 -0.4912,-0.49111 z M 307.87469,273.39899 c 0.55885,-0.2255 1.47333,-0.2255 2.03218,0 0.55885,0.2255 0.10161,0.41001 -1.01609,0.41001 -1.1177,0 -1.57494,-0.18451 -1.01609,-0.41001 z m 237.40899,-0.0169 c 0.58678,-0.23482 1.28789,-0.20595 1.558,0.0641 0.27011,0.27011 -0.21,0.46223 -1.06689,0.42694 -0.94696,-0.039 -1.13956,-0.23162 -0.49111,-0.49111 z m 871.39712,0 c 0.5868,-0.23482 1.2879,-0.20595 1.5581,0.0641 0.2701,0.27011 -0.2101,0.46223 -1.0669,0.42694 -0.947,-0.039 -1.1396,-0.23162 -0.4912,-0.49111 z m 236.4945,0.0169 c 0.5589,-0.2255 1.4734,-0.2255 2.0322,0 0.5589,0.2255 0.1016,0.41001 -1.0161,0.41001 -1.1177,0 -1.5749,-0.18451 -1.0161,-0.41001 z m -1350.9399,-0.8298 c 0.58679,-0.23481 1.2879,-0.20594 1.55801,0.0641 0.27011,0.27011 -0.21,0.46223 -1.06689,0.42693 -0.94696,-0.039 -1.13957,-0.23162 -0.49112,-0.4911 z m 248.68757,0.0169 c 0.55884,-0.2255 1.47332,-0.2255 2.03217,0 0.55885,0.2255 0.10161,0.41 -1.01609,0.41 -1.11769,0 -1.57493,-0.1845 -1.01608,-0.41 z m 859.20413,0 c 0.5588,-0.2255 1.4733,-0.2255 2.0321,0 0.5589,0.2255 0.1016,0.41 -1.0161,0.41 -1.1177,0 -1.5749,-0.1845 -1.016,-0.41 z m 249.602,-0.0169 c 0.5868,-0.23481 1.2879,-0.20594 1.558,0.0641 0.2701,0.27011 -0.21,0.46223 -1.0669,0.42693 -0.947,-0.039 -1.1395,-0.23162 -0.4911,-0.4911 z M 296.54531,271.75632 c 0.58679,-0.23481 1.2879,-0.20594 1.55801,0.0641 0.2701,0.2701 -0.21,0.46223 -1.0669,0.42693 -0.94695,-0.039 -1.13956,-0.23162 -0.49111,-0.4911 z m 260.06775,0.0169 c 0.55885,-0.2255 1.47333,-0.2255 2.03217,0 0.55885,0.2255 0.10161,0.41 -1.01608,0.41 -1.1177,0 -1.57494,-0.1845 -1.01609,-0.41 z m 847.82394,0 c 0.5588,-0.2255 1.4733,-0.2255 2.0321,0 0.5589,0.2255 0.1017,0.41 -1.016,0.41 -1.1177,0 -1.575,-0.1845 -1.0161,-0.41 z m 260.9822,-0.0169 c 0.5868,-0.23481 1.2879,-0.20594 1.558,0.0641 0.2701,0.2701 -0.21,0.46223 -1.0669,0.42693 -0.947,-0.039 -1.1395,-0.23162 -0.4911,-0.4911 z M 50.462143,270.21169 c 0.039,-0.94696 0.23162,-1.13957 0.49111,-0.49111 0.234814,0.58678 0.205936,1.28789 -0.06418,1.558 -0.270111,0.27011 -0.462232,-0.21 -0.426936,-1.06689 z m 240.393077,0.73176 c 0.58678,-0.23481 1.28789,-0.20594 1.558,0.0641 0.27011,0.2701 -0.21,0.46223 -1.06689,0.42693 -0.94695,-0.039 -1.13956,-0.23162 -0.49111,-0.4911 z m 271.49874,0 c 0.58678,-0.23481 1.28789,-0.20594 1.558,0.0641 0.27011,0.2701 -0.21,0.46223 -1.06689,0.42693 -0.94696,-0.039 -1.13956,-0.23162 -0.49111,-0.4911 z m 837.25654,0 c 0.5869,-0.23481 1.288,-0.20594 1.5581,0.0641 0.2701,0.2701 -0.2101,0.46223 -1.0669,0.42693 -0.947,-0.039 -1.1396,-0.23162 -0.4912,-0.4911 z m 271.4988,0 c 0.5868,-0.23481 1.2879,-0.20594 1.558,0.0641 0.2701,0.2701 -0.21,0.46223 -1.0669,0.42693 -0.947,-0.039 -1.1395,-0.23162 -0.4911,-0.4911 z M 285.97799,270.13058 c 0.58679,-0.23481 1.2879,-0.20594 1.55801,0.0641 0.27011,0.27011 -0.21,0.46224 -1.06689,0.42694 -0.94696,-0.039 -1.13957,-0.23162 -0.49112,-0.4911 z m 282.06606,0 c 0.58679,-0.23481 1.2879,-0.20594 1.558,0.0641 0.27011,0.27011 -0.20999,0.46224 -1.06689,0.42694 -0.94695,-0.039 -1.13956,-0.23162 -0.49111,-0.4911 z m 825.87645,0 c 0.5868,-0.23481 1.2879,-0.20594 1.558,0.0641 0.2701,0.27011 -0.2101,0.46224 -1.0669,0.42694 -0.947,-0.039 -1.1396,-0.23162 -0.4911,-0.4911 z m 282.066,0 c 0.5868,-0.23481 1.2879,-0.20594 1.558,0.0641 0.2702,0.27011 -0.21,0.46224 -1.0669,0.42694 -0.9469,-0.039 -1.1395,-0.23162 -0.4911,-0.4911 z M 281.10077,269.31771 c 0.58679,-0.23481 1.2879,-0.20594 1.55801,0.0641 0.2701,0.27011 -0.21,0.46224 -1.0669,0.42694 -0.94695,-0.039 -1.13956,-0.23162 -0.49111,-0.4911 z m 291.8205,0 c 0.58679,-0.23481 1.2879,-0.20594 1.55801,0.0641 0.27011,0.27011 -0.21,0.46224 -1.0669,0.42694 -0.94695,-0.039 -1.13956,-0.23162 -0.49111,-0.4911 z m 816.12193,0 c 0.5868,-0.23481 1.2879,-0.20594 1.5581,0.0641 0.2701,0.27011 -0.2101,0.46224 -1.0669,0.42694 -0.947,-0.039 -1.1396,-0.23162 -0.4912,-0.4911 z m 291.8205,0 c 0.5868,-0.23481 1.2879,-0.20594 1.5581,0.0641 0.2701,0.27011 -0.2101,0.46224 -1.0669,0.42694 -0.947,-0.039 -1.1396,-0.23162 -0.4912,-0.4911 z M 276.22355,268.50484 c 0.58679,-0.23482 1.28789,-0.20594 1.558,0.0641 0.27011,0.27011 -0.20999,0.46223 -1.06689,0.42694 -0.94695,-0.039 -1.13956,-0.23162 -0.49111,-0.4911 z m 301.57495,0 c 0.58678,-0.23482 1.28789,-0.20594 1.558,0.0641 0.27011,0.27011 -0.21,0.46223 -1.06689,0.42694 -0.94696,-0.039 -1.13957,-0.23162 -0.49111,-0.4911 z m 806.3675,0 c 0.5868,-0.23482 1.2879,-0.20594 1.558,0.0641 0.2702,0.27011 -0.21,0.46223 -1.0669,0.42694 -0.947,-0.039 -1.1395,-0.23162 -0.4911,-0.4911 z m 301.575,0 c 0.5868,-0.23482 1.2879,-0.20594 1.558,0.0641 0.2701,0.27011 -0.2101,0.46223 -1.0669,0.42694 -0.947,-0.039 -1.1396,-0.23162 -0.4911,-0.4911 z M 271.34633,267.69197 c 0.58678,-0.23482 1.28789,-0.20594 1.558,0.0641 0.27011,0.27011 -0.21,0.46223 -1.06689,0.42694 -0.94696,-0.039 -1.13957,-0.23162 -0.49111,-0.4911 z m 1419.27187,0 c 0.5868,-0.23482 1.2879,-0.20594 1.558,0.0641 0.2701,0.27011 -0.21,0.46223 -1.0669,0.42694 -0.947,-0.039 -1.1395,-0.23162 -0.4911,-0.4911 z m 220.5044,-0.73176 c 0.039,-0.94696 0.2317,-1.13957 0.4912,-0.49112 0.2348,0.58679 0.2059,1.2879 -0.064,1.55801 -0.2701,0.27011 -0.4622,-0.21 -0.427,-1.06689 z m -1643.84063,-0.0811 c 0.58679,-0.23481 1.2879,-0.20594 1.55801,0.0641 0.27011,0.27011 -0.21,0.46223 -1.06689,0.42693 -0.94696,-0.039 -1.13957,-0.23162 -0.49112,-0.4911 z m 319.4581,0 c 0.58679,-0.23481 1.2879,-0.20594 1.55801,0.0641 0.2701,0.27011 -0.21,0.46223 -1.0669,0.42693 -0.94695,-0.039 -1.13956,-0.23162 -0.49111,-0.4911 z m 788.48433,0 c 0.5868,-0.23481 1.2879,-0.20594 1.5581,0.0641 0.2701,0.27011 -0.2101,0.46223 -1.0669,0.42693 -0.947,-0.039 -1.1396,-0.23162 -0.4912,-0.4911 z m 319.4581,0 c 0.5868,-0.23481 1.2879,-0.20594 1.5581,0.0641 0.2701,0.27011 -0.2101,0.46223 -1.0669,0.42693 -0.947,-0.039 -1.1396,-0.23162 -0.4912,-0.4911 z M 258.3404,265.25334 c 0.58679,-0.23481 1.28789,-0.20594 1.558,0.0641 0.27011,0.2701 -0.20999,0.46223 -1.06689,0.42693 -0.94695,-0.039 -1.13956,-0.23162 -0.49111,-0.4911 z m 337.34125,0 c 0.58678,-0.23481 1.28789,-0.20594 1.558,0.0641 0.27011,0.2701 -0.21,0.46223 -1.06689,0.42693 -0.94696,-0.039 -1.13957,-0.23162 -0.49111,-0.4911 z m 770.60125,0 c 0.5868,-0.23481 1.2879,-0.20594 1.558,0.0641 0.2701,0.2701 -0.2101,0.46223 -1.0669,0.42693 -0.947,-0.039 -1.1396,-0.23162 -0.4911,-0.4911 z m 337.3412,0 c 0.5868,-0.23481 1.2879,-0.20594 1.558,0.0641 0.2702,0.2701 -0.21,0.46223 -1.0669,0.42693 -0.947,-0.039 -1.1395,-0.23162 -0.4911,-0.4911 z M 254.27605,264.44047 c 0.58678,-0.23481 1.28789,-0.20594 1.558,0.0641 0.27011,0.2701 -0.21,0.46223 -1.06689,0.42693 -0.94696,-0.039 -1.13957,-0.23162 -0.49111,-0.4911 z m 345.46995,0 c 0.58679,-0.23481 1.28789,-0.20594 1.558,0.0641 0.27011,0.2701 -0.20999,0.46223 -1.06689,0.42693 -0.94695,-0.039 -1.13956,-0.23162 -0.49111,-0.4911 z m 762.4725,0 c 0.5868,-0.23481 1.2879,-0.20594 1.558,0.0641 0.2702,0.2701 -0.21,0.46223 -1.0669,0.42693 -0.947,-0.039 -1.1395,-0.23162 -0.4911,-0.4911 z m 345.47,0 c 0.5868,-0.23481 1.2879,-0.20594 1.558,0.0641 0.2701,0.2701 -0.2101,0.46223 -1.0669,0.42693 -0.947,-0.039 -1.1396,-0.23162 -0.4911,-0.4911 z M 250.21169,263.6276 c 0.58679,-0.23481 1.2879,-0.20594 1.55801,0.0641 0.27011,0.2701 -0.21,0.46223 -1.06689,0.42693 -0.94696,-0.039 -1.13957,-0.23162 -0.49112,-0.4911 z m 353.59866,0 c 0.58679,-0.23481 1.2879,-0.20594 1.55801,0.0641 0.2701,0.2701 -0.21,0.46223 -1.0669,0.42693 -0.94695,-0.039 -1.13956,-0.23162 -0.49111,-0.4911 z m 754.34385,0 c 0.5868,-0.23481 1.2879,-0.20594 1.558,0.0641 0.2701,0.2701 -0.2101,0.46223 -1.0669,0.42693 -0.947,-0.039 -1.1396,-0.23162 -0.4911,-0.4911 z m 353.5986,0 c 0.5868,-0.23481 1.2879,-0.20594 1.558,0.0641 0.2702,0.2701 -0.21,0.46223 -1.0669,0.42693 -0.9469,-0.039 -1.1395,-0.23162 -0.4911,-0.4911 z M 607.8747,262.81473 c 0.58679,-0.23481 1.2879,-0.20594 1.55801,0.0641 0.27011,0.27011 -0.21,0.46224 -1.0669,0.42694 -0.94695,-0.039 -1.13956,-0.23162 -0.49111,-0.4911 z m 746.2151,0 c 0.5868,-0.23481 1.2879,-0.20594 1.558,0.0641 0.2701,0.27011 -0.21,0.46224 -1.0669,0.42694 -0.947,-0.039 -1.1395,-0.23162 -0.4911,-0.4911 z M 238.83151,261.18899 c 0.58678,-0.23482 1.28789,-0.20594 1.558,0.0641 0.27011,0.27011 -0.21,0.46223 -1.06689,0.42694 -0.94695,-0.039 -1.13956,-0.23162 -0.49111,-0.4911 z m 1484.30149,0 c 0.5868,-0.23482 1.2879,-0.20594 1.558,0.0641 0.2701,0.27011 -0.21,0.46223 -1.0669,0.42694 -0.947,-0.039 -1.1395,-0.23162 -0.4911,-0.4911 z M 918.1372,163.38696 c 0.80922,-0.89416 1.65419,-1.62574 1.87773,-1.62574 0.22354,0 -0.25564,0.73158 -1.06486,1.62574 -0.80921,0.89416 -1.65419,1.62574 -1.87773,1.62574 -0.22354,0 0.25565,-0.73158 1.06486,-1.62574 z m 125.9177,-0.20322 -1.5485,-1.82896 1.8289,1.54851 c 1.7188,1.45522 2.199,2.10941 1.5486,2.10941 -0.1543,0 -0.9774,-0.82303 -1.829,-1.82896 z m 42.6492,-17.47671 c -1.011,-1.28926 -0.9823,-1.31801 0.3069,-0.30691 1.354,1.06191 1.7847,1.72943 1.1156,1.72943 -0.1687,0 -0.8089,-0.64013 -1.4225,-1.42252 z m -4.0643,-3.25148 c -1.0111,-1.28927 -0.9824,-1.31802 0.3069,-0.30691 1.354,1.06191 1.7846,1.72943 1.1156,1.72943 -0.1688,0 -0.8089,-0.64014 -1.4225,-1.42252 z m -203.11394,0.30274 c 0,-0.16879 0.64013,-0.80893 1.42252,-1.42252 1.28929,-1.01111 1.31799,-0.98236 0.30694,0.30691 -1.06194,1.35403 -1.72946,1.78464 -1.72946,1.11561 z m 59.33954,0 c 0,-0.16879 0.64014,-0.80893 1.42252,-1.42252 1.2893,-1.01111 1.31799,-0.98236 0.30694,0.30691 -1.06193,1.35403 -1.72946,1.78464 -1.72946,1.11561 z m 83.6219,-1.11561 c -1.011,-1.28927 -0.9823,-1.31802 0.307,-0.30691 0.7824,0.61359 1.4225,1.25373 1.4225,1.42252 0,0.66903 -0.6675,0.23842 -1.7295,-1.11561 z m -137.67779,-3.4547 c 0.80922,-0.89416 1.65419,-1.62574 1.87773,-1.62574 0.22354,0 -0.25564,0.73158 -1.06486,1.62574 -0.80921,0.89415 -1.65419,1.62574 -1.87773,1.62574 -0.22354,0 0.25565,-0.73159 1.06486,-1.62574 z m 192.95299,0.20321 c -1.011,-1.28926 -0.9823,-1.31801 0.307,-0.3069 1.354,1.06191 1.7846,1.72943 1.1156,1.72943 -0.1688,0 -0.8089,-0.64014 -1.4226,-1.42253 z m -132.39414,-2.94873 c 0,-0.16879 0.64014,-0.80893 1.42253,-1.42253 1.28929,-1.0111 1.31799,-0.98235 0.30694,0.30691 -1.06194,1.35404 -1.72947,1.78464 -1.72947,1.11562 z m 70.61604,-1.11562 c -1.0111,-1.28926 -0.9824,-1.31801 0.3069,-0.30691 1.354,1.06191 1.7847,1.72943 1.1156,1.72943 -0.1688,0 -0.8089,-0.64013 -1.4225,-1.42252 z m -125.48479,-1.01609 c 0.80921,-0.89415 1.65419,-1.62574 1.87773,-1.62574 0.22354,0 -0.25565,0.73159 -1.06486,1.62574 -0.80922,0.89416 -1.65419,1.62574 -1.87773,1.62574 -0.22354,0 0.25564,-0.73158 1.06486,-1.62574 z m 181.19289,-0.20321 -1.5485,-1.82896 1.8289,1.54851 c 1.7188,1.45521 2.199,2.1094 1.5486,2.1094 -0.1543,0 -0.9774,-0.82303 -1.829,-1.82895 z m -173.47062,-6.70619 c 1.51665,-1.56477 2.94039,-2.84504 3.16393,-2.84504 0.22354,0 -0.83441,1.28027 -2.35106,2.84504 -1.51666,1.56478 -2.9404,2.84505 -3.16394,2.84505 -0.22354,0 0.83441,-1.28027 2.35107,-2.84505 z m 165.78182,-0.20321 -2.8013,-3.04827 3.0483,2.80129 c 2.8372,2.60737 3.422,3.29524 2.8013,3.29524 -0.1358,0 -1.5076,-1.37172 -3.0483,-3.04826 z m -146.27293,-19.1536 c 0,-0.13989 1.18882,-1.32871 2.64183,-2.64183 l 2.64183,-2.38747 -2.38749,2.64183 c -2.22547,2.46256 -2.89617,3.01547 -2.89617,2.38747 z m 124.72453,-2.38747 -2.3875,-2.64183 2.6418,2.38747 c 2.4626,2.22547 3.0155,2.89619 2.3875,2.89619 -0.1399,0 -1.3287,-1.18882 -2.6418,-2.64183 z M 926.26591,97.544454 c 0.80921,-0.894158 1.65419,-1.625741 1.87773,-1.625741 0.22354,0 -0.25565,0.731583 -1.06486,1.625741 -0.80921,0.894157 -1.65419,1.625741 -1.87773,1.625741 -0.22354,0 0.25565,-0.731584 1.06486,-1.625741 z m 109.66029,-0.203218 -1.5485,-1.828958 1.8289,1.54851 c 1.7188,1.455217 2.199,2.109407 1.5486,2.109407 -0.1543,0 -0.9774,-0.823032 -1.829,-1.828959 z M 929.92382,93.173194 c 0,-0.168792 0.64014,-0.808928 1.42253,-1.422523 1.28929,-1.011105 1.31799,-0.982354 0.30694,0.306907 -1.06194,1.354039 -1.72947,1.784641 -1.72947,1.115616 z m 101.50508,-1.115616 c -1.011,-1.289261 -0.9823,-1.318012 0.307,-0.306907 0.7823,0.613595 1.4225,1.253731 1.4225,1.422523 0,0.669025 -0.6676,0.238423 -1.7295,-1.115616 z m -97.44072,-3.761606 c 0,-0.168793 0.64013,-0.808928 1.42252,-1.422524 1.28929,-1.011105 1.31799,-0.982354 0.30694,0.306908 -1.06193,1.354039 -1.72946,1.78464 -1.72946,1.115616 z m 93.37642,-1.115616 c -1.0111,-1.289262 -0.9824,-1.318013 0.3069,-0.306908 0.7824,0.613596 1.4225,1.253731 1.4225,1.422524 0,0.669024 -0.6675,0.238423 -1.7294,-1.115616 z"
           id="path26" />
      </g>
    </g>
  </g>
</svg>
