<?xml version="1.0" encoding="UTF-8"?>
<!DOCTYPE svg PUBLIC "-//W3C//DTD SVG 1.1//EN" "http://www.w3.org/Graphics/SVG/1.1/DTD/svg11.dtd">
<!-- Creator: CorelDRAW -->
<svg xmlns="http://www.w3.org/2000/svg" xml:space="preserve" width="295mm" height="295.617mm" version="1.1" style="shape-rendering:geometricPrecision; text-rendering:geometricPrecision; image-rendering:optimizeQuality; fill-rule:evenodd; clip-rule:evenodd"
viewBox="0 0 660.67 662.05"
 xmlns:xlink="http://www.w3.org/1999/xlink"
 xmlns:xodm="http://www.corel.com/coreldraw/odm/2003">
 <defs>
  <style type="text/css">
   <![CDATA[
    .str0 {stroke:black;stroke-width:0.45;stroke-miterlimit:22.9256}
    .fil0 {fill:black}
    .fil2 {fill:#FA0506}
    .fil1 {fill:white}
   ]]>
  </style>
 </defs>
 <g id="Capa_x0020_1">
  <metadata id="CorelCorpID_0Corel-Layer"/>
  <g id="_2211368356544">
   <path class="fil0" d="M464.37 1.12c49.12,51.94 112.43,77.05 196.3,63.23 -4.73,197.94 -74.84,358.72 -196.2,493.91l0 0.09c-38.79,40.49 -83.12,75.23 -132.39,103.7 -50.98,-30 -95.75,-64.63 -135.37,-103.88l-0.02 -33.56 0.02 33.56c-121.52,-135.25 -191.98,-296.73 -196.72,-494.81 83.95,13.84 147.29,-11.33 196.43,-63.36l0 0.42c91.42,55.53 182.72,54.36 267.94,-0.05l0 0.76z"/>
   <path class="fil1" d="M456.34 545.2l0.04 -524.83c46.25,48.98 105.88,72.66 184.89,59.64 -4.45,186.45 -70.54,337.89 -184.93,465.19z"/>
   <path class="fil1" d="M204.56 544.83l-0.27 -525.39c-46.25,48.98 -105.88,72.66 -184.89,59.64 4.45,186.45 70.78,338.45 185.16,465.75z"/>
   <path class="fil0 str0" d="M121.18 189.71l9.05 0.07c-2.02,32.68 1.04,89.7 -0.24,121.39 -0.49,12.12 -4.23,13.98 -7.28,13.69 -3.04,-0.28 -5.2,0.67 -7.4,-9.39 -2.05,-9.34 -2.51,-27.41 -2.72,-39.65l-28.13 5.83c0,24.23 2.65,53.73 16.64,65.48 16.84,14.14 50.67,4.08 54.87,-18.66 5.62,-27.8 3.81,-104.63 3.81,-138.69l7.31 -0.01 -0.16 -37.5 -45.57 -0.02 -0.19 37.46z"/>
   <polygon class="fil0 str0" points="488.34,353.39 525.17,353.29 524.96,318.36 517.94,318.33 517.75,242.36 547.61,352.81 567.75,353.07 566.95,193.24 572.35,193.42 572.73,155.42 536.84,155.38 536.54,192.89 545.1,192.96 545.75,271.91 514.29,155.48 487.73,155.43 487.54,192.48 493.06,192.49 493.19,318.96 488.23,318.96 "/>
   <path class="fil2" d="M204.56 544.83c37.29,36.94 79.43,69.54 127.42,97.78 46.38,-26.81 88.11,-59.5 124.62,-97.61l-0.1 -525.22c-80.22,51.22 -166.15,52.32 -252.21,0.05l0.27 525z"/>
  </g>
 </g>
</svg>
